<mxfile host="app.diagrams.net" modified="2023-05-03T14:41:08.385Z" agent="Mozilla/5.0 (X11; Linux x86_64) AppleWebKit/537.36 (KHTML, like Gecko) Chrome/112.0.0.0 Safari/537.36" etag="s3aCkgziQA0kRvdSQqEm" version="21.2.7" type="device" pages="12">
  <diagram id="48mqWXXt7GXL9j5H_8mT" name="flux_Geral">
    <mxGraphModel dx="880" dy="452" grid="1" gridSize="10" guides="1" tooltips="1" connect="1" arrows="1" fold="1" page="1" pageScale="1" pageWidth="827" pageHeight="1169" math="0" shadow="0">
      <root>
        <mxCell id="0" />
        <mxCell id="1" parent="0" />
        <mxCell id="9QhhVt960Lknr6tN_1ie-1" style="edgeStyle=orthogonalEdgeStyle;rounded=0;orthogonalLoop=1;jettySize=auto;html=1;exitX=0.5;exitY=1;exitDx=0;exitDy=0;entryX=0.5;entryY=0;entryDx=0;entryDy=0;fontSize=13;" parent="1" source="9QhhVt960Lknr6tN_1ie-2" target="9QhhVt960Lknr6tN_1ie-6" edge="1">
          <mxGeometry relative="1" as="geometry" />
        </mxCell>
        <mxCell id="9QhhVt960Lknr6tN_1ie-2" value="&lt;font style=&quot;font-size: 13px;&quot;&gt;Start&lt;/font&gt;" style="shape=ellipse;html=1;dashed=0;whitespace=wrap;perimeter=ellipsePerimeter;fontSize=13;" parent="1" vertex="1">
          <mxGeometry x="410" y="230" width="100" height="40" as="geometry" />
        </mxCell>
        <mxCell id="9QhhVt960Lknr6tN_1ie-3" style="edgeStyle=orthogonalEdgeStyle;rounded=0;orthogonalLoop=1;jettySize=auto;html=1;exitX=0.5;exitY=1;exitDx=0;exitDy=0;entryX=0.5;entryY=0;entryDx=0;entryDy=0;fontSize=13;" parent="1" source="9QhhVt960Lknr6tN_1ie-23" target="9QhhVt960Lknr6tN_1ie-11" edge="1">
          <mxGeometry relative="1" as="geometry">
            <mxPoint x="460" y="414" as="sourcePoint" />
          </mxGeometry>
        </mxCell>
        <mxCell id="9QhhVt960Lknr6tN_1ie-4" style="edgeStyle=orthogonalEdgeStyle;rounded=0;orthogonalLoop=1;jettySize=auto;html=1;exitX=0;exitY=0.5;exitDx=0;exitDy=0;entryX=0;entryY=0.75;entryDx=0;entryDy=0;fontSize=13;" parent="1" source="9QhhVt960Lknr6tN_1ie-23" target="9QhhVt960Lknr6tN_1ie-6" edge="1">
          <mxGeometry relative="1" as="geometry">
            <mxPoint x="400" y="379" as="sourcePoint" />
          </mxGeometry>
        </mxCell>
        <mxCell id="9QhhVt960Lknr6tN_1ie-5" style="edgeStyle=orthogonalEdgeStyle;rounded=0;orthogonalLoop=1;jettySize=auto;html=1;exitX=0.5;exitY=1;exitDx=0;exitDy=0;entryX=0.5;entryY=0;entryDx=0;entryDy=0;fontSize=13;entryPerimeter=0;" parent="1" source="9QhhVt960Lknr6tN_1ie-6" target="9QhhVt960Lknr6tN_1ie-23" edge="1">
          <mxGeometry relative="1" as="geometry">
            <mxPoint x="460" y="344" as="targetPoint" />
          </mxGeometry>
        </mxCell>
        <mxCell id="9QhhVt960Lknr6tN_1ie-6" value="Try to connect to the server" style="rounded=0;whiteSpace=wrap;html=1;fontSize=13;" parent="1" vertex="1">
          <mxGeometry x="400" y="295" width="120" height="30" as="geometry" />
        </mxCell>
        <mxCell id="9QhhVt960Lknr6tN_1ie-7" value="No" style="text;html=1;align=center;verticalAlign=middle;whiteSpace=wrap;rounded=0;fontSize=13;" parent="1" vertex="1">
          <mxGeometry x="380" y="344" width="30" height="20" as="geometry" />
        </mxCell>
        <mxCell id="9QhhVt960Lknr6tN_1ie-8" style="edgeStyle=orthogonalEdgeStyle;rounded=0;orthogonalLoop=1;jettySize=auto;html=1;fontSize=13;" parent="1" source="9QhhVt960Lknr6tN_1ie-9" target="9QhhVt960Lknr6tN_1ie-15" edge="1">
          <mxGeometry relative="1" as="geometry" />
        </mxCell>
        <mxCell id="9QhhVt960Lknr6tN_1ie-9" value="Play Audio&lt;br style=&quot;font-size: 13px;&quot;&gt;2 X" style="shape=parallelogram;perimeter=parallelogramPerimeter;whiteSpace=wrap;html=1;fixedSize=1;fontSize=13;" parent="1" vertex="1">
          <mxGeometry x="595" y="477" width="120" height="30" as="geometry" />
        </mxCell>
        <mxCell id="9QhhVt960Lknr6tN_1ie-10" value="Yes" style="text;html=1;align=center;verticalAlign=middle;whiteSpace=wrap;rounded=0;fontSize=13;" parent="1" vertex="1">
          <mxGeometry x="460" y="414" width="30" height="20" as="geometry" />
        </mxCell>
        <mxCell id="9QhhVt960Lknr6tN_1ie-11" value="Connect to Server" style="rounded=0;whiteSpace=wrap;html=1;fontSize=13;" parent="1" vertex="1">
          <mxGeometry x="395" y="438" width="130" height="30" as="geometry" />
        </mxCell>
        <mxCell id="9QhhVt960Lknr6tN_1ie-12" value="Receive Data" style="rounded=0;whiteSpace=wrap;html=1;fontSize=13;" parent="1" vertex="1">
          <mxGeometry x="395" y="488" width="130" height="30" as="geometry" />
        </mxCell>
        <mxCell id="9QhhVt960Lknr6tN_1ie-13" style="edgeStyle=orthogonalEdgeStyle;rounded=0;orthogonalLoop=1;jettySize=auto;html=1;exitX=0.5;exitY=1;exitDx=0;exitDy=0;entryX=0.5;entryY=0;entryDx=0;entryDy=0;fontSize=13;" parent="1" source="9QhhVt960Lknr6tN_1ie-11" target="9QhhVt960Lknr6tN_1ie-12" edge="1">
          <mxGeometry relative="1" as="geometry" />
        </mxCell>
        <mxCell id="9QhhVt960Lknr6tN_1ie-14" style="edgeStyle=orthogonalEdgeStyle;rounded=0;orthogonalLoop=1;jettySize=auto;html=1;exitX=0.5;exitY=0;exitDx=0;exitDy=0;entryX=1;entryY=0.5;entryDx=0;entryDy=0;fontSize=13;" parent="1" source="9QhhVt960Lknr6tN_1ie-15" target="9QhhVt960Lknr6tN_1ie-6" edge="1">
          <mxGeometry relative="1" as="geometry">
            <mxPoint x="460" y="268" as="targetPoint" />
            <Array as="points">
              <mxPoint x="655" y="310" />
            </Array>
          </mxGeometry>
        </mxCell>
        <mxCell id="9QhhVt960Lknr6tN_1ie-15" value="Close the switch pin&amp;nbsp;" style="rounded=0;whiteSpace=wrap;html=1;fontSize=13;" parent="1" vertex="1">
          <mxGeometry x="590" y="414" width="130" height="30" as="geometry" />
        </mxCell>
        <mxCell id="9QhhVt960Lknr6tN_1ie-16" style="edgeStyle=orthogonalEdgeStyle;rounded=0;orthogonalLoop=1;jettySize=auto;html=1;exitX=0.5;exitY=0;exitDx=0;exitDy=0;entryX=0.544;entryY=1.059;entryDx=0;entryDy=0;entryPerimeter=0;fontSize=13;" parent="1" source="9QhhVt960Lknr6tN_1ie-17" target="9QhhVt960Lknr6tN_1ie-9" edge="1">
          <mxGeometry relative="1" as="geometry" />
        </mxCell>
        <mxCell id="9QhhVt960Lknr6tN_1ie-17" value="Open the switch pin&amp;nbsp;" style="rounded=0;whiteSpace=wrap;html=1;fontSize=13;" parent="1" vertex="1">
          <mxGeometry x="595" y="538" width="130" height="30" as="geometry" />
        </mxCell>
        <mxCell id="9QhhVt960Lknr6tN_1ie-18" style="edgeStyle=orthogonalEdgeStyle;rounded=0;orthogonalLoop=1;jettySize=auto;html=1;entryX=0.5;entryY=1;entryDx=0;entryDy=0;exitX=0;exitY=0.5;exitDx=0;exitDy=0;fontSize=13;" parent="1" source="9QhhVt960Lknr6tN_1ie-19" target="9QhhVt960Lknr6tN_1ie-30" edge="1">
          <mxGeometry relative="1" as="geometry" />
        </mxCell>
        <mxCell id="9QhhVt960Lknr6tN_1ie-19" value="Report &lt;br style=&quot;font-size: 13px;&quot;&gt;requested?" style="rhombus;whiteSpace=wrap;html=1;fontSize=13;" parent="1" vertex="1">
          <mxGeometry x="270" y="468" width="100" height="70" as="geometry" />
        </mxCell>
        <mxCell id="9QhhVt960Lknr6tN_1ie-20" style="edgeStyle=orthogonalEdgeStyle;rounded=0;orthogonalLoop=1;jettySize=auto;html=1;exitX=0.5;exitY=1;exitDx=0;exitDy=0;entryX=0;entryY=0.5;entryDx=0;entryDy=0;fontSize=13;" parent="1" source="9QhhVt960Lknr6tN_1ie-19" target="9QhhVt960Lknr6tN_1ie-28" edge="1">
          <mxGeometry relative="1" as="geometry">
            <Array as="points">
              <mxPoint x="320" y="573" />
            </Array>
          </mxGeometry>
        </mxCell>
        <mxCell id="9QhhVt960Lknr6tN_1ie-21" value="No" style="text;html=1;align=center;verticalAlign=middle;whiteSpace=wrap;rounded=0;fontSize=13;" parent="1" vertex="1">
          <mxGeometry x="290" y="548" width="30" height="20" as="geometry" />
        </mxCell>
        <mxCell id="9QhhVt960Lknr6tN_1ie-22" value="Yes" style="text;html=1;align=center;verticalAlign=middle;whiteSpace=wrap;rounded=0;fontSize=13;" parent="1" vertex="1">
          <mxGeometry x="170" y="472" width="30" height="20" as="geometry" />
        </mxCell>
        <mxCell id="9QhhVt960Lknr6tN_1ie-23" value="Connected?" style="rhombus;whiteSpace=wrap;html=1;fontSize=13;" parent="1" vertex="1">
          <mxGeometry x="400" y="344" width="120" height="70" as="geometry" />
        </mxCell>
        <mxCell id="9QhhVt960Lknr6tN_1ie-24" style="edgeStyle=orthogonalEdgeStyle;rounded=0;orthogonalLoop=1;jettySize=auto;html=1;exitX=0;exitY=0.5;exitDx=0;exitDy=0;entryX=1;entryY=0.5;entryDx=0;entryDy=0;fontSize=13;" parent="1" source="9QhhVt960Lknr6tN_1ie-12" target="9QhhVt960Lknr6tN_1ie-19" edge="1">
          <mxGeometry relative="1" as="geometry" />
        </mxCell>
        <mxCell id="9QhhVt960Lknr6tN_1ie-25" value="" style="edgeStyle=orthogonalEdgeStyle;rounded=0;orthogonalLoop=1;jettySize=auto;html=1;fontSize=13;" parent="1" source="9QhhVt960Lknr6tN_1ie-26" target="9QhhVt960Lknr6tN_1ie-34" edge="1">
          <mxGeometry relative="1" as="geometry" />
        </mxCell>
        <mxCell id="9QhhVt960Lknr6tN_1ie-26" value="Close the&amp;nbsp;communication&amp;nbsp;" style="rounded=0;whiteSpace=wrap;html=1;fontSize=13;" parent="1" vertex="1">
          <mxGeometry x="395" y="618" width="130" height="30" as="geometry" />
        </mxCell>
        <mxCell id="9QhhVt960Lknr6tN_1ie-27" value="" style="edgeStyle=orthogonalEdgeStyle;rounded=0;orthogonalLoop=1;jettySize=auto;html=1;fontSize=13;" parent="1" source="9QhhVt960Lknr6tN_1ie-28" target="9QhhVt960Lknr6tN_1ie-26" edge="1">
          <mxGeometry relative="1" as="geometry" />
        </mxCell>
        <mxCell id="9QhhVt960Lknr6tN_1ie-28" value="Process audio and RDS commands" style="rounded=0;whiteSpace=wrap;html=1;fontSize=13;" parent="1" vertex="1">
          <mxGeometry x="395" y="558" width="130" height="30" as="geometry" />
        </mxCell>
        <mxCell id="9QhhVt960Lknr6tN_1ie-29" value="" style="edgeStyle=orthogonalEdgeStyle;rounded=0;orthogonalLoop=1;jettySize=auto;html=1;fontSize=13;" parent="1" source="9QhhVt960Lknr6tN_1ie-30" target="9QhhVt960Lknr6tN_1ie-32" edge="1">
          <mxGeometry relative="1" as="geometry" />
        </mxCell>
        <mxCell id="9QhhVt960Lknr6tN_1ie-30" value="Sends the server if the RDS and audio have been programmed correctly" style="rounded=0;whiteSpace=wrap;html=1;fontSize=13;" parent="1" vertex="1">
          <mxGeometry x="160" y="402" width="130" height="70" as="geometry" />
        </mxCell>
        <mxCell id="9QhhVt960Lknr6tN_1ie-31" style="edgeStyle=orthogonalEdgeStyle;rounded=0;orthogonalLoop=1;jettySize=auto;html=1;entryX=0;entryY=0.75;entryDx=0;entryDy=0;fontSize=13;" parent="1" source="9QhhVt960Lknr6tN_1ie-32" target="9QhhVt960Lknr6tN_1ie-6" edge="1">
          <mxGeometry relative="1" as="geometry">
            <Array as="points">
              <mxPoint x="225" y="318" />
              <mxPoint x="335" y="318" />
            </Array>
          </mxGeometry>
        </mxCell>
        <mxCell id="9QhhVt960Lknr6tN_1ie-32" value="Close the&amp;nbsp;communication&amp;nbsp;" style="rounded=0;whiteSpace=wrap;html=1;fontSize=13;" parent="1" vertex="1">
          <mxGeometry x="160" y="339" width="130" height="30" as="geometry" />
        </mxCell>
        <mxCell id="9QhhVt960Lknr6tN_1ie-33" style="edgeStyle=orthogonalEdgeStyle;rounded=0;orthogonalLoop=1;jettySize=auto;html=1;exitX=1;exitY=0.5;exitDx=0;exitDy=0;entryX=0.5;entryY=1;entryDx=0;entryDy=0;fontSize=13;" parent="1" source="9QhhVt960Lknr6tN_1ie-34" target="9QhhVt960Lknr6tN_1ie-17" edge="1">
          <mxGeometry relative="1" as="geometry">
            <Array as="points">
              <mxPoint x="680" y="633" />
              <mxPoint x="680" y="598" />
              <mxPoint x="660" y="598" />
            </Array>
          </mxGeometry>
        </mxCell>
        <mxCell id="9QhhVt960Lknr6tN_1ie-34" value="Sending RDS commands" style="shape=parallelogram;perimeter=parallelogramPerimeter;whiteSpace=wrap;html=1;fixedSize=1;fontSize=13;" parent="1" vertex="1">
          <mxGeometry x="540" y="618" width="120" height="30" as="geometry" />
        </mxCell>
      </root>
    </mxGraphModel>
  </diagram>
  <diagram id="Q6XLGyGRoSKV2BF3oMst" name="Code_structure">
    <mxGraphModel dx="2261" dy="844" grid="1" gridSize="10" guides="1" tooltips="1" connect="1" arrows="1" fold="1" page="1" pageScale="1" pageWidth="827" pageHeight="1169" math="0" shadow="0">
      <root>
        <mxCell id="0" />
        <mxCell id="1" parent="0" />
        <mxCell id="sgrCoe_wcVkQA3MGbxPh-9" value="&lt;b&gt;Main&lt;/b&gt;" style="rounded=0;whiteSpace=wrap;html=1;strokeWidth=2;fontSize=15;fillColor=#f5f5f5;fontColor=#333333;strokeColor=#666666;" parent="1" vertex="1">
          <mxGeometry x="354" y="170" width="120" height="30" as="geometry" />
        </mxCell>
        <mxCell id="sgrCoe_wcVkQA3MGbxPh-30" value="" style="group" parent="1" vertex="1" connectable="0">
          <mxGeometry x="334" y="270" width="160" height="130" as="geometry" />
        </mxCell>
        <mxCell id="RY0qWG3G5mygGbEQQmsV-7" value="" style="group" parent="sgrCoe_wcVkQA3MGbxPh-30" vertex="1" connectable="0">
          <mxGeometry width="160" height="130" as="geometry" />
        </mxCell>
        <mxCell id="sgrCoe_wcVkQA3MGbxPh-10" value="" style="group;fontSize=15;strokeWidth=2;" parent="RY0qWG3G5mygGbEQQmsV-7" vertex="1" connectable="0">
          <mxGeometry width="160" height="70" as="geometry" />
        </mxCell>
        <mxCell id="sgrCoe_wcVkQA3MGbxPh-11" value="&lt;span style=&quot;font-size: 15px;&quot;&gt;Split_RDS&lt;/span&gt;" style="rounded=0;whiteSpace=wrap;html=1;fillColor=#f5f5f5;strokeColor=#666666;strokeWidth=2;gradientColor=#b3b3b3;" parent="sgrCoe_wcVkQA3MGbxPh-10" vertex="1">
          <mxGeometry width="160" height="30" as="geometry" />
        </mxCell>
        <mxCell id="sgrCoe_wcVkQA3MGbxPh-12" value="&lt;font style=&quot;font-size: 15px;&quot;&gt;(.h .cpp)&lt;/font&gt;" style="rounded=0;whiteSpace=wrap;html=1;fillColor=#f5f5f5;fontColor=#333333;strokeColor=#666666;strokeWidth=2;" parent="sgrCoe_wcVkQA3MGbxPh-10" vertex="1">
          <mxGeometry y="29.996666666666663" width="160" height="23.333333333333332" as="geometry" />
        </mxCell>
        <mxCell id="sgrCoe_wcVkQA3MGbxPh-29" value="splitRDS_msg()&lt;br&gt;return_PS()&lt;br&gt;return_PI()&lt;br&gt;return_AF()" style="rounded=0;whiteSpace=wrap;html=1;fillColor=#eeeeee;strokeColor=#36393d;strokeWidth=2;" parent="RY0qWG3G5mygGbEQQmsV-7" vertex="1">
          <mxGeometry y="55" width="160" height="75" as="geometry" />
        </mxCell>
        <mxCell id="sgrCoe_wcVkQA3MGbxPh-32" value="" style="group" parent="1" vertex="1" connectable="0">
          <mxGeometry x="620" y="270" width="160" height="130" as="geometry" />
        </mxCell>
        <mxCell id="sgrCoe_wcVkQA3MGbxPh-31" value="sending()&lt;br&gt;result_report()" style="rounded=0;whiteSpace=wrap;html=1;fillColor=#fff2cc;strokeColor=#d6b656;strokeWidth=2;" parent="sgrCoe_wcVkQA3MGbxPh-32" vertex="1">
          <mxGeometry y="61.35" width="160" height="68.65" as="geometry" />
        </mxCell>
        <mxCell id="sgrCoe_wcVkQA3MGbxPh-15" value="&lt;font style=&quot;font-size: 15px;&quot;&gt;(.h .cpp)&lt;/font&gt;" style="rounded=0;whiteSpace=wrap;html=1;fillColor=#f5f5f5;fontColor=#333333;strokeColor=#666666;strokeWidth=2;" parent="sgrCoe_wcVkQA3MGbxPh-32" vertex="1">
          <mxGeometry y="34.69003679671921" width="160" height="25.561079744950984" as="geometry" />
        </mxCell>
        <mxCell id="sgrCoe_wcVkQA3MGbxPh-14" value="&lt;span style=&quot;font-size: 15px;&quot;&gt;Send_Alarm&lt;/span&gt;" style="rounded=0;whiteSpace=wrap;html=1;fillColor=#fff2cc;strokeColor=#d6b656;strokeWidth=2;gradientColor=#ffd966;" parent="sgrCoe_wcVkQA3MGbxPh-32" vertex="1">
          <mxGeometry width="160" height="32.86424538636555" as="geometry" />
        </mxCell>
        <mxCell id="sgrCoe_wcVkQA3MGbxPh-38" style="edgeStyle=orthogonalEdgeStyle;rounded=0;orthogonalLoop=1;jettySize=auto;html=1;entryX=0.5;entryY=1;entryDx=0;entryDy=0;strokeWidth=2;fontSize=15;startArrow=classic;startFill=1;" parent="1" source="sgrCoe_wcVkQA3MGbxPh-5" target="sgrCoe_wcVkQA3MGbxPh-9" edge="1">
          <mxGeometry relative="1" as="geometry">
            <Array as="points">
              <mxPoint x="130" y="240" />
              <mxPoint x="414" y="240" />
            </Array>
          </mxGeometry>
        </mxCell>
        <mxCell id="sgrCoe_wcVkQA3MGbxPh-39" style="edgeStyle=orthogonalEdgeStyle;rounded=0;orthogonalLoop=1;jettySize=auto;html=1;strokeWidth=2;fontSize=15;startArrow=classic;startFill=1;" parent="1" source="sgrCoe_wcVkQA3MGbxPh-11" edge="1">
          <mxGeometry relative="1" as="geometry">
            <mxPoint x="413.5" y="199.99999999999977" as="targetPoint" />
          </mxGeometry>
        </mxCell>
        <mxCell id="sgrCoe_wcVkQA3MGbxPh-40" style="edgeStyle=orthogonalEdgeStyle;rounded=0;orthogonalLoop=1;jettySize=auto;html=1;entryX=0.5;entryY=1;entryDx=0;entryDy=0;strokeWidth=2;fontSize=15;startArrow=classic;startFill=1;" parent="1" source="sgrCoe_wcVkQA3MGbxPh-14" target="sgrCoe_wcVkQA3MGbxPh-9" edge="1">
          <mxGeometry relative="1" as="geometry">
            <Array as="points">
              <mxPoint x="690" y="240" />
              <mxPoint x="414" y="240" />
            </Array>
          </mxGeometry>
        </mxCell>
        <mxCell id="sgrCoe_wcVkQA3MGbxPh-55" style="edgeStyle=orthogonalEdgeStyle;rounded=0;orthogonalLoop=1;jettySize=auto;html=1;strokeWidth=2;fontSize=15;startArrow=classic;startFill=1;entryX=0.5;entryY=1;entryDx=0;entryDy=0;" parent="1" source="sgrCoe_wcVkQA3MGbxPh-51" target="sgrCoe_wcVkQA3MGbxPh-21" edge="1">
          <mxGeometry relative="1" as="geometry">
            <mxPoint x="189.99999999999977" y="400" as="targetPoint" />
            <Array as="points">
              <mxPoint x="340" y="430" />
              <mxPoint x="120" y="430" />
            </Array>
          </mxGeometry>
        </mxCell>
        <mxCell id="sgrCoe_wcVkQA3MGbxPh-51" value="&lt;span style=&quot;font-size: 15px;&quot;&gt;Receive_report&lt;/span&gt;" style="rounded=0;whiteSpace=wrap;html=1;fillColor=#d5e8d4;strokeColor=#82b366;strokeWidth=2;gradientColor=#97d077;" parent="1" vertex="1">
          <mxGeometry x="260" y="470" width="160" height="46.666666666666664" as="geometry" />
        </mxCell>
        <mxCell id="sgrCoe_wcVkQA3MGbxPh-53" style="edgeStyle=orthogonalEdgeStyle;rounded=0;orthogonalLoop=1;jettySize=auto;html=1;entryX=0.5;entryY=1;entryDx=0;entryDy=0;strokeWidth=2;fontSize=15;startArrow=classic;startFill=1;" parent="1" source="sgrCoe_wcVkQA3MGbxPh-52" target="sgrCoe_wcVkQA3MGbxPh-21" edge="1">
          <mxGeometry relative="1" as="geometry">
            <Array as="points">
              <mxPoint y="430" />
              <mxPoint x="120" y="430" />
            </Array>
          </mxGeometry>
        </mxCell>
        <mxCell id="sgrCoe_wcVkQA3MGbxPh-52" value="Receive_data" style="rounded=0;whiteSpace=wrap;html=1;fillColor=#d5e8d4;strokeColor=#82b366;strokeWidth=2;gradientColor=#97d077;fontSize=15;" parent="1" vertex="1">
          <mxGeometry x="-80" y="470" width="160" height="46.666666666666664" as="geometry" />
        </mxCell>
        <mxCell id="sgrCoe_wcVkQA3MGbxPh-54" style="edgeStyle=orthogonalEdgeStyle;rounded=0;orthogonalLoop=1;jettySize=auto;html=1;strokeWidth=2;fontSize=15;startArrow=classic;startFill=1;entryX=0.5;entryY=1;entryDx=0;entryDy=0;" parent="1" source="RY0qWG3G5mygGbEQQmsV-6" target="sgrCoe_wcVkQA3MGbxPh-21" edge="1">
          <mxGeometry relative="1" as="geometry">
            <mxPoint x="189.99999999999977" y="400" as="targetPoint" />
            <Array as="points">
              <mxPoint x="170" y="430" />
              <mxPoint x="120" y="430" />
            </Array>
            <mxPoint x="170.0526315789475" y="470" as="sourcePoint" />
          </mxGeometry>
        </mxCell>
        <mxCell id="sgrCoe_wcVkQA3MGbxPh-74" style="edgeStyle=orthogonalEdgeStyle;rounded=0;orthogonalLoop=1;jettySize=auto;html=1;strokeWidth=2;fontSize=15;startArrow=classic;startFill=1;entryX=0.5;entryY=1;entryDx=0;entryDy=0;" parent="1" source="sgrCoe_wcVkQA3MGbxPh-71" target="sgrCoe_wcVkQA3MGbxPh-31" edge="1">
          <mxGeometry relative="1" as="geometry">
            <mxPoint x="640" y="400" as="targetPoint" />
            <Array as="points">
              <mxPoint x="700" y="450" />
              <mxPoint x="700" y="450" />
            </Array>
          </mxGeometry>
        </mxCell>
        <mxCell id="sgrCoe_wcVkQA3MGbxPh-71" value="&lt;span style=&quot;font-size: 15px;&quot;&gt;Send_RDS&lt;/span&gt;" style="rounded=0;whiteSpace=wrap;html=1;fillColor=#fff2cc;strokeColor=#d6b656;strokeWidth=2;gradientColor=#ffd966;" parent="1" vertex="1">
          <mxGeometry x="630" y="470" width="160" height="46.666666666666664" as="geometry" />
        </mxCell>
        <mxCell id="sgrCoe_wcVkQA3MGbxPh-72" value="&lt;span style=&quot;font-size: 15px;&quot;&gt;Send_WAV&lt;/span&gt;" style="rounded=0;whiteSpace=wrap;html=1;fillColor=#fff2cc;strokeColor=#d6b656;strokeWidth=2;gradientColor=#ffd966;" parent="1" vertex="1">
          <mxGeometry x="800" y="470.12" width="160" height="46.666666666666664" as="geometry" />
        </mxCell>
        <mxCell id="sgrCoe_wcVkQA3MGbxPh-77" style="edgeStyle=orthogonalEdgeStyle;rounded=0;orthogonalLoop=1;jettySize=auto;html=1;strokeWidth=2;fontSize=15;startArrow=classic;startFill=1;entryX=0.5;entryY=1;entryDx=0;entryDy=0;exitX=0.5;exitY=0;exitDx=0;exitDy=0;" parent="1" source="RY0qWG3G5mygGbEQQmsV-12" target="sgrCoe_wcVkQA3MGbxPh-31" edge="1">
          <mxGeometry relative="1" as="geometry">
            <mxPoint x="600" y="420" as="targetPoint" />
            <mxPoint x="550" y="470" as="sourcePoint" />
          </mxGeometry>
        </mxCell>
        <mxCell id="sgrCoe_wcVkQA3MGbxPh-78" style="edgeStyle=orthogonalEdgeStyle;rounded=0;orthogonalLoop=1;jettySize=auto;html=1;exitX=0.5;exitY=1;exitDx=0;exitDy=0;entryX=0.65;entryY=-0.024;entryDx=0;entryDy=0;entryPerimeter=0;strokeWidth=2;fontSize=15;startArrow=classic;startFill=1;" parent="1" source="sgrCoe_wcVkQA3MGbxPh-31" target="sgrCoe_wcVkQA3MGbxPh-72" edge="1">
          <mxGeometry relative="1" as="geometry" />
        </mxCell>
        <mxCell id="RY0qWG3G5mygGbEQQmsV-2" value="" style="group" parent="1" vertex="1" connectable="0">
          <mxGeometry x="40" y="260" width="160" height="130.12" as="geometry" />
        </mxCell>
        <mxCell id="sgrCoe_wcVkQA3MGbxPh-21" value="&lt;font style=&quot;font-size: 12px;&quot;&gt;init()&lt;br&gt;connect_server()&lt;br&gt;return_RDSmsg()&lt;br&gt;report2server()&lt;/font&gt;" style="rounded=0;whiteSpace=wrap;html=1;fillColor=#d5e8d4;strokeColor=#82b366;strokeWidth=2;" parent="RY0qWG3G5mygGbEQQmsV-2" vertex="1">
          <mxGeometry y="59" width="160" height="71.12" as="geometry" />
        </mxCell>
        <mxCell id="sgrCoe_wcVkQA3MGbxPh-7" value="&lt;font style=&quot;font-size: 15px;&quot;&gt;(.h .cpp)&lt;/font&gt;" style="rounded=0;whiteSpace=wrap;html=1;fillColor=#f5f5f5;fontColor=#333333;strokeColor=#666666;strokeWidth=2;" parent="RY0qWG3G5mygGbEQQmsV-2" vertex="1">
          <mxGeometry y="32" width="160" height="25.57" as="geometry" />
        </mxCell>
        <mxCell id="sgrCoe_wcVkQA3MGbxPh-5" value="&lt;font style=&quot;font-size: 15px;&quot;&gt;ClientSCK&lt;/font&gt;" style="rounded=0;whiteSpace=wrap;html=1;fillColor=#d5e8d4;strokeColor=#82b366;strokeWidth=2;gradientColor=#97d077;" parent="RY0qWG3G5mygGbEQQmsV-2" vertex="1">
          <mxGeometry width="160" height="30" as="geometry" />
        </mxCell>
        <mxCell id="RY0qWG3G5mygGbEQQmsV-3" value="" style="group" parent="1" vertex="1" connectable="0">
          <mxGeometry x="90" y="470" width="160" height="130.12" as="geometry" />
        </mxCell>
        <mxCell id="RY0qWG3G5mygGbEQQmsV-4" value="&lt;font style=&quot;font-size: 12px;&quot;&gt;deleteWAV()&lt;br&gt;createWAV()&lt;br&gt;save()&lt;br&gt;close()&lt;/font&gt;" style="rounded=0;whiteSpace=wrap;html=1;fillColor=#d5e8d4;strokeColor=#82b366;strokeWidth=2;" parent="RY0qWG3G5mygGbEQQmsV-3" vertex="1">
          <mxGeometry y="59" width="160" height="71.12" as="geometry" />
        </mxCell>
        <mxCell id="RY0qWG3G5mygGbEQQmsV-5" value="&lt;font style=&quot;font-size: 15px;&quot;&gt;(.h .cpp)&lt;/font&gt;" style="rounded=0;whiteSpace=wrap;html=1;fillColor=#f5f5f5;fontColor=#333333;strokeColor=#666666;strokeWidth=2;" parent="RY0qWG3G5mygGbEQQmsV-3" vertex="1">
          <mxGeometry y="32" width="160" height="25.57" as="geometry" />
        </mxCell>
        <mxCell id="RY0qWG3G5mygGbEQQmsV-6" value="&lt;span style=&quot;font-size: 15px;&quot;&gt;Save_WAV&lt;/span&gt;" style="rounded=0;whiteSpace=wrap;html=1;fillColor=#d5e8d4;strokeColor=#82b366;strokeWidth=2;gradientColor=#97d077;" parent="RY0qWG3G5mygGbEQQmsV-3" vertex="1">
          <mxGeometry width="160" height="30" as="geometry" />
        </mxCell>
        <mxCell id="RY0qWG3G5mygGbEQQmsV-9" value="" style="group" parent="1" vertex="1" connectable="0">
          <mxGeometry x="460" y="470.12" width="160" height="130" as="geometry" />
        </mxCell>
        <mxCell id="RY0qWG3G5mygGbEQQmsV-10" value="init()&lt;br&gt;check_RDS()" style="rounded=0;whiteSpace=wrap;html=1;fillColor=#fff2cc;strokeColor=#d6b656;strokeWidth=2;" parent="RY0qWG3G5mygGbEQQmsV-9" vertex="1">
          <mxGeometry y="61.35" width="160" height="68.65" as="geometry" />
        </mxCell>
        <mxCell id="RY0qWG3G5mygGbEQQmsV-11" value="&lt;font style=&quot;font-size: 15px;&quot;&gt;(.h .cpp)&lt;/font&gt;" style="rounded=0;whiteSpace=wrap;html=1;fillColor=#f5f5f5;fontColor=#333333;strokeColor=#666666;strokeWidth=2;" parent="RY0qWG3G5mygGbEQQmsV-9" vertex="1">
          <mxGeometry y="34.69003679671921" width="160" height="25.561079744950984" as="geometry" />
        </mxCell>
        <mxCell id="RY0qWG3G5mygGbEQQmsV-12" value="&lt;span style=&quot;font-size: 15px;&quot;&gt;Report_RDS&lt;/span&gt;" style="rounded=0;whiteSpace=wrap;html=1;fillColor=#fff2cc;strokeColor=#d6b656;strokeWidth=2;gradientColor=#ffd966;" parent="RY0qWG3G5mygGbEQQmsV-9" vertex="1">
          <mxGeometry width="160" height="32.86424538636555" as="geometry" />
        </mxCell>
      </root>
    </mxGraphModel>
  </diagram>
  <diagram id="CVZtKxkN3gkQHIYwiihf" name="TimeFlow">
    <mxGraphModel dx="1434" dy="844" grid="1" gridSize="10" guides="1" tooltips="1" connect="1" arrows="1" fold="1" page="1" pageScale="1" pageWidth="827" pageHeight="1169" math="0" shadow="0">
      <root>
        <mxCell id="0" />
        <mxCell id="1" parent="0" />
        <mxCell id="N2c73aYW4yQ58_2U_Npv-2" value="" style="endArrow=classic;html=1;rounded=0;strokeWidth=2;fontSize=15;" parent="1" edge="1">
          <mxGeometry width="50" height="50" relative="1" as="geometry">
            <mxPoint x="220" y="401" as="sourcePoint" />
            <mxPoint x="629" y="400" as="targetPoint" />
          </mxGeometry>
        </mxCell>
        <mxCell id="tIbEIioXk5MgdQZd8O7I-6" value="" style="edgeStyle=orthogonalEdgeStyle;rounded=0;orthogonalLoop=1;jettySize=auto;html=1;dashed=1;strokeWidth=1;fontSize=15;" parent="1" source="xZbf02bDXVQ0ndbTkyZz-1" target="My0ODSu-JJE2hyxVWOVO-1" edge="1">
          <mxGeometry relative="1" as="geometry" />
        </mxCell>
        <mxCell id="xZbf02bDXVQ0ndbTkyZz-1" value="&lt;font style=&quot;font-size: 15px;&quot;&gt;ClientSCK&lt;/font&gt;" style="rounded=0;whiteSpace=wrap;html=1;fillColor=#d5e8d4;strokeColor=#82b366;strokeWidth=2;gradientColor=#97d077;" parent="1" vertex="1">
          <mxGeometry x="249" y="360" width="90" height="30" as="geometry" />
        </mxCell>
        <mxCell id="tIbEIioXk5MgdQZd8O7I-9" style="edgeStyle=orthogonalEdgeStyle;rounded=0;orthogonalLoop=1;jettySize=auto;html=1;entryX=0;entryY=0.5;entryDx=0;entryDy=0;dashed=1;strokeWidth=1;fontSize=15;" parent="1" source="My0ODSu-JJE2hyxVWOVO-1" target="tIbEIioXk5MgdQZd8O7I-1" edge="1">
          <mxGeometry relative="1" as="geometry" />
        </mxCell>
        <mxCell id="My0ODSu-JJE2hyxVWOVO-1" value="&lt;span style=&quot;font-size: 15px;&quot;&gt;Split_RDS&lt;/span&gt;" style="rounded=0;whiteSpace=wrap;html=1;fillColor=#f5f5f5;strokeColor=#666666;strokeWidth=2;gradientColor=#b3b3b3;" parent="1" vertex="1">
          <mxGeometry x="373" y="360" width="90" height="30" as="geometry" />
        </mxCell>
        <mxCell id="tIbEIioXk5MgdQZd8O7I-3" style="edgeStyle=orthogonalEdgeStyle;rounded=0;orthogonalLoop=1;jettySize=auto;html=1;entryX=0;entryY=0.5;entryDx=0;entryDy=0;strokeWidth=1;fontSize=15;dashed=1;" parent="1" source="tIbEIioXk5MgdQZd8O7I-1" target="xZbf02bDXVQ0ndbTkyZz-1" edge="1">
          <mxGeometry relative="1" as="geometry">
            <Array as="points">
              <mxPoint x="589" y="375" />
              <mxPoint x="589" y="330" />
              <mxPoint x="229" y="330" />
              <mxPoint x="229" y="375" />
            </Array>
          </mxGeometry>
        </mxCell>
        <mxCell id="tIbEIioXk5MgdQZd8O7I-1" value="&lt;span style=&quot;font-size: 15px;&quot;&gt;Send_Alarm&lt;/span&gt;" style="rounded=0;whiteSpace=wrap;html=1;fillColor=#fff2cc;strokeColor=#d6b656;strokeWidth=2;gradientColor=#ffd966;" parent="1" vertex="1">
          <mxGeometry x="489" y="358.57" width="90" height="32.86" as="geometry" />
        </mxCell>
        <mxCell id="tIbEIioXk5MgdQZd8O7I-4" value="Time (time unit)" style="text;html=1;align=center;verticalAlign=middle;resizable=0;points=[];autosize=1;strokeColor=none;fillColor=none;fontSize=15;" parent="1" vertex="1">
          <mxGeometry x="498" y="400" width="130" height="30" as="geometry" />
        </mxCell>
        <mxCell id="tIbEIioXk5MgdQZd8O7I-10" value="" style="endArrow=classic;html=1;rounded=0;strokeWidth=2;fontSize=15;" parent="1" edge="1">
          <mxGeometry width="50" height="50" relative="1" as="geometry">
            <mxPoint x="220" y="516" as="sourcePoint" />
            <mxPoint x="629" y="515" as="targetPoint" />
          </mxGeometry>
        </mxCell>
        <mxCell id="tIbEIioXk5MgdQZd8O7I-12" value="&lt;font style=&quot;font-size: 15px;&quot;&gt;ClientSCK&lt;/font&gt;" style="rounded=0;whiteSpace=wrap;html=1;fillColor=#d5e8d4;strokeColor=#82b366;strokeWidth=2;gradientColor=#97d077;" parent="1" vertex="1">
          <mxGeometry x="249" y="475" width="90" height="30" as="geometry" />
        </mxCell>
        <mxCell id="tIbEIioXk5MgdQZd8O7I-15" style="edgeStyle=orthogonalEdgeStyle;rounded=0;orthogonalLoop=1;jettySize=auto;html=1;entryX=0;entryY=0.5;entryDx=0;entryDy=0;strokeWidth=1;fontSize=15;dashed=1;exitX=1;exitY=0.5;exitDx=0;exitDy=0;" parent="1" source="tIbEIioXk5MgdQZd8O7I-12" target="tIbEIioXk5MgdQZd8O7I-12" edge="1">
          <mxGeometry relative="1" as="geometry">
            <Array as="points">
              <mxPoint x="589" y="490" />
              <mxPoint x="589" y="445" />
              <mxPoint x="229" y="445" />
              <mxPoint x="229" y="490" />
            </Array>
            <mxPoint x="579" y="490.08333333333337" as="sourcePoint" />
          </mxGeometry>
        </mxCell>
        <mxCell id="tIbEIioXk5MgdQZd8O7I-18" value="&lt;b&gt;a)&lt;/b&gt;" style="text;html=1;align=center;verticalAlign=middle;resizable=0;points=[];autosize=1;strokeColor=none;fillColor=none;fontSize=15;" parent="1" vertex="1">
          <mxGeometry x="394" y="400" width="40" height="30" as="geometry" />
        </mxCell>
        <mxCell id="tIbEIioXk5MgdQZd8O7I-19" value="&lt;b&gt;b)&lt;/b&gt;" style="text;html=1;align=center;verticalAlign=middle;resizable=0;points=[];autosize=1;strokeColor=none;fillColor=none;fontSize=15;" parent="1" vertex="1">
          <mxGeometry x="394" y="515" width="40" height="30" as="geometry" />
        </mxCell>
        <mxCell id="tIbEIioXk5MgdQZd8O7I-20" value="Time (time unit)" style="text;html=1;align=center;verticalAlign=middle;resizable=0;points=[];autosize=1;strokeColor=none;fillColor=none;fontSize=15;" parent="1" vertex="1">
          <mxGeometry x="498" y="515" width="130" height="30" as="geometry" />
        </mxCell>
      </root>
    </mxGraphModel>
  </diagram>
  <diagram name="Client" id="bryjHeMdo95hMNZb6VUw">
    <mxGraphModel dx="880" dy="452" grid="1" gridSize="10" guides="1" tooltips="1" connect="1" arrows="1" fold="1" page="1" pageScale="1" pageWidth="827" pageHeight="1169" math="0" shadow="0">
      <root>
        <mxCell id="Q-4QK-5UE5bwCnDvv8pP-0" />
        <mxCell id="Q-4QK-5UE5bwCnDvv8pP-1" parent="Q-4QK-5UE5bwCnDvv8pP-0" />
        <mxCell id="2_f3HDeOaizhJr1SCBqv-3" value="" style="edgeStyle=orthogonalEdgeStyle;rounded=0;orthogonalLoop=1;jettySize=auto;html=1;fontSize=15;strokeWidth=2;" parent="Q-4QK-5UE5bwCnDvv8pP-1" source="2_f3HDeOaizhJr1SCBqv-0" target="2_f3HDeOaizhJr1SCBqv-2" edge="1">
          <mxGeometry relative="1" as="geometry" />
        </mxCell>
        <mxCell id="2_f3HDeOaizhJr1SCBqv-0" value="Init" style="whiteSpace=wrap;html=1;rounded=1;arcSize=14;strokeWidth=2;fontSize=15;strokeColor=#083CCC;" parent="Q-4QK-5UE5bwCnDvv8pP-1" vertex="1">
          <mxGeometry x="99" y="150" width="120" height="60" as="geometry" />
        </mxCell>
        <mxCell id="2_f3HDeOaizhJr1SCBqv-5" value="" style="edgeStyle=orthogonalEdgeStyle;rounded=0;orthogonalLoop=1;jettySize=auto;html=1;strokeWidth=2;fontSize=15;" parent="Q-4QK-5UE5bwCnDvv8pP-1" source="2_f3HDeOaizhJr1SCBqv-2" target="2_f3HDeOaizhJr1SCBqv-4" edge="1">
          <mxGeometry relative="1" as="geometry" />
        </mxCell>
        <mxCell id="2_f3HDeOaizhJr1SCBqv-2" value="Try to connect to the server using IP and Port" style="whiteSpace=wrap;html=1;fontSize=15;rounded=1;arcSize=14;strokeWidth=2;strokeColor=#083CCC;" parent="Q-4QK-5UE5bwCnDvv8pP-1" vertex="1">
          <mxGeometry x="269" y="150" width="120" height="60" as="geometry" />
        </mxCell>
        <mxCell id="2_f3HDeOaizhJr1SCBqv-7" value="" style="edgeStyle=orthogonalEdgeStyle;rounded=0;orthogonalLoop=1;jettySize=auto;html=1;strokeWidth=2;fontSize=15;" parent="Q-4QK-5UE5bwCnDvv8pP-1" source="2_f3HDeOaizhJr1SCBqv-4" target="2_f3HDeOaizhJr1SCBqv-6" edge="1">
          <mxGeometry relative="1" as="geometry" />
        </mxCell>
        <mxCell id="k1XWQf0nVw0IQ7CwYSMZ-1" value="Yes" style="edgeLabel;html=1;align=center;verticalAlign=middle;resizable=0;points=[];fontSize=15;" parent="2_f3HDeOaizhJr1SCBqv-7" vertex="1" connectable="0">
          <mxGeometry x="-0.1012" relative="1" as="geometry">
            <mxPoint y="15" as="offset" />
          </mxGeometry>
        </mxCell>
        <mxCell id="2_f3HDeOaizhJr1SCBqv-8" style="edgeStyle=orthogonalEdgeStyle;rounded=0;orthogonalLoop=1;jettySize=auto;html=1;entryX=0;entryY=0.5;entryDx=0;entryDy=0;strokeWidth=2;fontSize=15;exitX=0;exitY=0.5;exitDx=0;exitDy=0;" parent="Q-4QK-5UE5bwCnDvv8pP-1" source="2_f3HDeOaizhJr1SCBqv-4" target="2_f3HDeOaizhJr1SCBqv-2" edge="1">
          <mxGeometry relative="1" as="geometry">
            <Array as="points">
              <mxPoint x="249" y="295" />
              <mxPoint x="249" y="180" />
            </Array>
          </mxGeometry>
        </mxCell>
        <mxCell id="dqDZAFqL8IvVoC-oo3b0-6" value="No" style="edgeLabel;html=1;align=center;verticalAlign=middle;resizable=0;points=[];fontSize=15;" parent="2_f3HDeOaizhJr1SCBqv-8" vertex="1" connectable="0">
          <mxGeometry x="-0.5708" y="1" relative="1" as="geometry">
            <mxPoint x="-19" y="-36" as="offset" />
          </mxGeometry>
        </mxCell>
        <mxCell id="2_f3HDeOaizhJr1SCBqv-4" value="Connected ?" style="rhombus;whiteSpace=wrap;html=1;fontSize=15;rounded=1;arcSize=14;strokeWidth=2;strokeColor=#006600;" parent="Q-4QK-5UE5bwCnDvv8pP-1" vertex="1">
          <mxGeometry x="274" y="250" width="110" height="90" as="geometry" />
        </mxCell>
        <mxCell id="2_f3HDeOaizhJr1SCBqv-10" value="" style="edgeStyle=orthogonalEdgeStyle;rounded=0;orthogonalLoop=1;jettySize=auto;html=1;strokeWidth=2;fontSize=15;" parent="Q-4QK-5UE5bwCnDvv8pP-1" source="2_f3HDeOaizhJr1SCBqv-6" target="2_f3HDeOaizhJr1SCBqv-9" edge="1">
          <mxGeometry relative="1" as="geometry" />
        </mxCell>
        <mxCell id="2_f3HDeOaizhJr1SCBqv-6" value="Create new WAV file" style="whiteSpace=wrap;html=1;fontSize=15;rounded=1;arcSize=14;strokeWidth=2;strokeColor=#083CCC;" parent="Q-4QK-5UE5bwCnDvv8pP-1" vertex="1">
          <mxGeometry x="433.25" y="265" width="120" height="60" as="geometry" />
        </mxCell>
        <mxCell id="2_f3HDeOaizhJr1SCBqv-14" value="" style="edgeStyle=orthogonalEdgeStyle;rounded=0;orthogonalLoop=1;jettySize=auto;html=1;strokeWidth=2;fontSize=15;entryX=1;entryY=0.5;entryDx=0;entryDy=0;" parent="Q-4QK-5UE5bwCnDvv8pP-1" source="2_f3HDeOaizhJr1SCBqv-9" target="2_f3HDeOaizhJr1SCBqv-13" edge="1">
          <mxGeometry relative="1" as="geometry">
            <mxPoint x="279" y="350" as="targetPoint" />
          </mxGeometry>
        </mxCell>
        <mxCell id="k1XWQf0nVw0IQ7CwYSMZ-2" value="No" style="edgeLabel;html=1;align=center;verticalAlign=middle;resizable=0;points=[];fontSize=15;" parent="2_f3HDeOaizhJr1SCBqv-14" vertex="1" connectable="0">
          <mxGeometry x="0.7616" relative="1" as="geometry">
            <mxPoint x="14" y="18" as="offset" />
          </mxGeometry>
        </mxCell>
        <mxCell id="2_f3HDeOaizhJr1SCBqv-17" value="" style="edgeStyle=orthogonalEdgeStyle;rounded=0;orthogonalLoop=1;jettySize=auto;html=1;strokeWidth=2;fontSize=15;" parent="Q-4QK-5UE5bwCnDvv8pP-1" source="2_f3HDeOaizhJr1SCBqv-9" target="2_f3HDeOaizhJr1SCBqv-16" edge="1">
          <mxGeometry relative="1" as="geometry" />
        </mxCell>
        <mxCell id="k1XWQf0nVw0IQ7CwYSMZ-3" value="Yes" style="edgeLabel;html=1;align=center;verticalAlign=middle;resizable=0;points=[];fontSize=15;" parent="2_f3HDeOaizhJr1SCBqv-17" vertex="1" connectable="0">
          <mxGeometry x="0.2962" relative="1" as="geometry">
            <mxPoint x="16" y="-8" as="offset" />
          </mxGeometry>
        </mxCell>
        <mxCell id="2_f3HDeOaizhJr1SCBqv-9" value="Is there data to receive ?" style="rhombus;whiteSpace=wrap;html=1;fontSize=15;rounded=1;arcSize=14;strokeWidth=2;strokeColor=#006600;" parent="Q-4QK-5UE5bwCnDvv8pP-1" vertex="1">
          <mxGeometry x="419" y="350" width="148.5" height="105" as="geometry" />
        </mxCell>
        <mxCell id="dqDZAFqL8IvVoC-oo3b0-4" value="" style="edgeStyle=orthogonalEdgeStyle;rounded=0;orthogonalLoop=1;jettySize=auto;html=1;strokeWidth=2;fontSize=15;" parent="Q-4QK-5UE5bwCnDvv8pP-1" source="2_f3HDeOaizhJr1SCBqv-13" target="dqDZAFqL8IvVoC-oo3b0-2" edge="1">
          <mxGeometry relative="1" as="geometry" />
        </mxCell>
        <mxCell id="2_f3HDeOaizhJr1SCBqv-13" value="Close WAV file" style="whiteSpace=wrap;html=1;fontSize=15;rounded=1;arcSize=14;strokeWidth=2;strokeColor=#083CCC;" parent="Q-4QK-5UE5bwCnDvv8pP-1" vertex="1">
          <mxGeometry x="264" y="372.5" width="120" height="60" as="geometry" />
        </mxCell>
        <mxCell id="2_f3HDeOaizhJr1SCBqv-19" value="" style="edgeStyle=orthogonalEdgeStyle;rounded=0;orthogonalLoop=1;jettySize=auto;html=1;strokeWidth=2;fontSize=15;entryX=0.5;entryY=0;entryDx=0;entryDy=0;" parent="Q-4QK-5UE5bwCnDvv8pP-1" source="2_f3HDeOaizhJr1SCBqv-16" target="2_f3HDeOaizhJr1SCBqv-28" edge="1">
          <mxGeometry relative="1" as="geometry">
            <mxPoint x="493.25" y="590" as="targetPoint" />
          </mxGeometry>
        </mxCell>
        <mxCell id="2_f3HDeOaizhJr1SCBqv-16" value="Read byte" style="whiteSpace=wrap;html=1;fontSize=15;rounded=1;arcSize=14;strokeWidth=2;strokeColor=#083CCC;" parent="Q-4QK-5UE5bwCnDvv8pP-1" vertex="1">
          <mxGeometry x="433.25" y="490" width="120" height="60" as="geometry" />
        </mxCell>
        <mxCell id="2_f3HDeOaizhJr1SCBqv-21" value="" style="edgeStyle=orthogonalEdgeStyle;rounded=0;orthogonalLoop=1;jettySize=auto;html=1;strokeWidth=2;fontSize=15;exitX=0.5;exitY=1;exitDx=0;exitDy=0;entryX=1;entryY=0.5;entryDx=0;entryDy=0;" parent="Q-4QK-5UE5bwCnDvv8pP-1" source="2_f3HDeOaizhJr1SCBqv-28" target="2_f3HDeOaizhJr1SCBqv-25" edge="1">
          <mxGeometry relative="1" as="geometry">
            <mxPoint x="359" y="720" as="sourcePoint" />
            <mxPoint x="493.3333333333335" y="720" as="targetPoint" />
          </mxGeometry>
        </mxCell>
        <mxCell id="k1XWQf0nVw0IQ7CwYSMZ-5" value="Yes" style="edgeLabel;html=1;align=center;verticalAlign=middle;resizable=0;points=[];fontSize=15;" parent="2_f3HDeOaizhJr1SCBqv-21" vertex="1" connectable="0">
          <mxGeometry x="0.7177" relative="1" as="geometry">
            <mxPoint x="59" y="-12" as="offset" />
          </mxGeometry>
        </mxCell>
        <mxCell id="skaU4zkbSkps_LyAlrFm-13" value="" style="edgeStyle=orthogonalEdgeStyle;rounded=0;orthogonalLoop=1;jettySize=auto;html=1;strokeWidth=2;exitX=0;exitY=0.5;exitDx=0;exitDy=0;entryX=0.5;entryY=1;entryDx=0;entryDy=0;" parent="Q-4QK-5UE5bwCnDvv8pP-1" source="2_f3HDeOaizhJr1SCBqv-25" target="skaU4zkbSkps_LyAlrFm-0" edge="1">
          <mxGeometry relative="1" as="geometry">
            <mxPoint x="240" y="760" as="sourcePoint" />
            <mxPoint x="230" y="730" as="targetPoint" />
            <Array as="points" />
          </mxGeometry>
        </mxCell>
        <mxCell id="2_f3HDeOaizhJr1SCBqv-25" value="Read remaining data until &#39;/0&#39;" style="whiteSpace=wrap;html=1;fontSize=15;rounded=1;arcSize=14;strokeWidth=2;strokeColor=#083CCC;" parent="Q-4QK-5UE5bwCnDvv8pP-1" vertex="1">
          <mxGeometry x="320" y="687.5" width="120" height="60" as="geometry" />
        </mxCell>
        <mxCell id="2_f3HDeOaizhJr1SCBqv-30" value="" style="edgeStyle=orthogonalEdgeStyle;rounded=0;orthogonalLoop=1;jettySize=auto;html=1;strokeWidth=2;fontSize=15;" parent="Q-4QK-5UE5bwCnDvv8pP-1" source="2_f3HDeOaizhJr1SCBqv-28" target="2_f3HDeOaizhJr1SCBqv-29" edge="1">
          <mxGeometry relative="1" as="geometry" />
        </mxCell>
        <mxCell id="k1XWQf0nVw0IQ7CwYSMZ-4" value="No" style="edgeLabel;html=1;align=center;verticalAlign=middle;resizable=0;points=[];fontSize=15;" parent="2_f3HDeOaizhJr1SCBqv-30" vertex="1" connectable="0">
          <mxGeometry x="0.6763" y="-2" relative="1" as="geometry">
            <mxPoint x="-23" y="13" as="offset" />
          </mxGeometry>
        </mxCell>
        <mxCell id="2_f3HDeOaizhJr1SCBqv-28" value="WAV terminator&lt;br&gt;&amp;nbsp;read?" style="rhombus;whiteSpace=wrap;html=1;fontSize=15;rounded=1;arcSize=14;strokeWidth=2;strokeColor=#006600;" parent="Q-4QK-5UE5bwCnDvv8pP-1" vertex="1">
          <mxGeometry x="419" y="582.5" width="148.5" height="105" as="geometry" />
        </mxCell>
        <mxCell id="dqDZAFqL8IvVoC-oo3b0-1" style="edgeStyle=orthogonalEdgeStyle;rounded=0;orthogonalLoop=1;jettySize=auto;html=1;entryX=1;entryY=0.5;entryDx=0;entryDy=0;strokeWidth=2;fontSize=15;" parent="Q-4QK-5UE5bwCnDvv8pP-1" source="2_f3HDeOaizhJr1SCBqv-29" target="2_f3HDeOaizhJr1SCBqv-9" edge="1">
          <mxGeometry relative="1" as="geometry">
            <Array as="points">
              <mxPoint x="669" y="403" />
            </Array>
          </mxGeometry>
        </mxCell>
        <mxCell id="2_f3HDeOaizhJr1SCBqv-29" value="Save byte on WAV file" style="whiteSpace=wrap;html=1;fontSize=15;rounded=1;arcSize=14;strokeWidth=2;strokeColor=#083CCC;" parent="Q-4QK-5UE5bwCnDvv8pP-1" vertex="1">
          <mxGeometry x="609" y="605" width="120" height="60" as="geometry" />
        </mxCell>
        <mxCell id="skaU4zkbSkps_LyAlrFm-12" value="" style="edgeStyle=orthogonalEdgeStyle;rounded=0;orthogonalLoop=1;jettySize=auto;html=1;strokeWidth=2;" parent="Q-4QK-5UE5bwCnDvv8pP-1" source="fydUDdbSmevKPlnN3sL--0" target="2_f3HDeOaizhJr1SCBqv-13" edge="1">
          <mxGeometry relative="1" as="geometry" />
        </mxCell>
        <mxCell id="fydUDdbSmevKPlnN3sL--0" value="Store a string in a variable" style="whiteSpace=wrap;html=1;fontSize=15;strokeColor=#083CCC;rounded=1;arcSize=14;strokeWidth=2;" parent="Q-4QK-5UE5bwCnDvv8pP-1" vertex="1">
          <mxGeometry x="264" y="465" width="120" height="60" as="geometry" />
        </mxCell>
        <mxCell id="iVQE9wkDkA4B3B7XG877-0" value="&lt;font style=&quot;font-size: 15px;&quot;&gt;Return&amp;nbsp;full RDS&amp;nbsp;string&lt;/font&gt;" style="strokeWidth=2;html=1;shape=mxgraph.flowchart.terminator;whiteSpace=wrap;strokeColor=#FF9933;" parent="Q-4QK-5UE5bwCnDvv8pP-1" vertex="1">
          <mxGeometry x="119" y="280" width="100" height="60" as="geometry" />
        </mxCell>
        <mxCell id="dqDZAFqL8IvVoC-oo3b0-5" value="" style="edgeStyle=orthogonalEdgeStyle;rounded=0;orthogonalLoop=1;jettySize=auto;html=1;strokeWidth=2;fontSize=15;" parent="Q-4QK-5UE5bwCnDvv8pP-1" source="dqDZAFqL8IvVoC-oo3b0-2" target="iVQE9wkDkA4B3B7XG877-0" edge="1">
          <mxGeometry relative="1" as="geometry" />
        </mxCell>
        <mxCell id="dqDZAFqL8IvVoC-oo3b0-2" value="Close connection" style="whiteSpace=wrap;html=1;fontSize=15;rounded=1;arcSize=14;strokeWidth=2;strokeColor=#083CCC;" parent="Q-4QK-5UE5bwCnDvv8pP-1" vertex="1">
          <mxGeometry x="109" y="372.5" width="120" height="60" as="geometry" />
        </mxCell>
        <mxCell id="skaU4zkbSkps_LyAlrFm-8" value="&lt;font style=&quot;font-size: 15px;&quot;&gt;Yes&lt;/font&gt;" style="edgeStyle=orthogonalEdgeStyle;rounded=0;orthogonalLoop=1;jettySize=auto;html=1;entryX=0.5;entryY=1;entryDx=0;entryDy=0;strokeWidth=2;exitX=0;exitY=0.5;exitDx=0;exitDy=0;" parent="Q-4QK-5UE5bwCnDvv8pP-1" source="skaU4zkbSkps_LyAlrFm-0" target="skaU4zkbSkps_LyAlrFm-7" edge="1">
          <mxGeometry x="-0.2724" y="19" relative="1" as="geometry">
            <mxPoint as="offset" />
          </mxGeometry>
        </mxCell>
        <mxCell id="skaU4zkbSkps_LyAlrFm-22" style="edgeStyle=orthogonalEdgeStyle;rounded=0;orthogonalLoop=1;jettySize=auto;html=1;entryX=0.5;entryY=1;entryDx=0;entryDy=0;strokeWidth=2;" parent="Q-4QK-5UE5bwCnDvv8pP-1" source="skaU4zkbSkps_LyAlrFm-0" target="fydUDdbSmevKPlnN3sL--0" edge="1">
          <mxGeometry relative="1" as="geometry" />
        </mxCell>
        <mxCell id="skaU4zkbSkps_LyAlrFm-23" value="&lt;font style=&quot;font-size: 15px;&quot;&gt;No&lt;/font&gt;" style="edgeLabel;html=1;align=center;verticalAlign=middle;resizable=0;points=[];" parent="skaU4zkbSkps_LyAlrFm-22" vertex="1" connectable="0">
          <mxGeometry x="-0.2543" y="2" relative="1" as="geometry">
            <mxPoint x="33" y="15" as="offset" />
          </mxGeometry>
        </mxCell>
        <mxCell id="skaU4zkbSkps_LyAlrFm-0" value="Is this a report request?" style="rhombus;whiteSpace=wrap;html=1;fontSize=15;rounded=1;arcSize=14;strokeWidth=2;strokeColor=#006600;" parent="Q-4QK-5UE5bwCnDvv8pP-1" vertex="1">
          <mxGeometry x="193" y="593" width="148.5" height="105" as="geometry" />
        </mxCell>
        <mxCell id="skaU4zkbSkps_LyAlrFm-17" value="" style="edgeStyle=orthogonalEdgeStyle;rounded=0;orthogonalLoop=1;jettySize=auto;html=1;strokeWidth=2;" parent="Q-4QK-5UE5bwCnDvv8pP-1" source="skaU4zkbSkps_LyAlrFm-7" target="skaU4zkbSkps_LyAlrFm-15" edge="1">
          <mxGeometry relative="1" as="geometry" />
        </mxCell>
        <mxCell id="skaU4zkbSkps_LyAlrFm-7" value="Reads the string related to the report" style="whiteSpace=wrap;html=1;fontSize=15;strokeColor=#083CCC;rounded=1;arcSize=14;strokeWidth=2;" parent="Q-4QK-5UE5bwCnDvv8pP-1" vertex="1">
          <mxGeometry x="109" y="547" width="120" height="60" as="geometry" />
        </mxCell>
        <mxCell id="skaU4zkbSkps_LyAlrFm-21" style="edgeStyle=orthogonalEdgeStyle;rounded=0;orthogonalLoop=1;jettySize=auto;html=1;entryX=0.5;entryY=1;entryDx=0;entryDy=0;strokeWidth=2;" parent="Q-4QK-5UE5bwCnDvv8pP-1" source="skaU4zkbSkps_LyAlrFm-15" target="2_f3HDeOaizhJr1SCBqv-13" edge="1">
          <mxGeometry relative="1" as="geometry">
            <Array as="points">
              <mxPoint x="169" y="450" />
              <mxPoint x="324" y="450" />
            </Array>
          </mxGeometry>
        </mxCell>
        <mxCell id="skaU4zkbSkps_LyAlrFm-15" value="Send report string to server" style="whiteSpace=wrap;html=1;fontSize=15;strokeColor=#083CCC;rounded=1;arcSize=14;strokeWidth=2;" parent="Q-4QK-5UE5bwCnDvv8pP-1" vertex="1">
          <mxGeometry x="109" y="464" width="120" height="60" as="geometry" />
        </mxCell>
      </root>
    </mxGraphModel>
  </diagram>
  <diagram name="Split" id="9F0piupm9n2-mKWmfs1S">
    <mxGraphModel dx="1257" dy="760" grid="1" gridSize="10" guides="1" tooltips="1" connect="1" arrows="1" fold="1" page="1" pageScale="1" pageWidth="827" pageHeight="1169" math="0" shadow="0">
      <root>
        <mxCell id="FEsmItpbJhf-vHp7Gewb-0" />
        <mxCell id="FEsmItpbJhf-vHp7Gewb-1" parent="FEsmItpbJhf-vHp7Gewb-0" />
        <mxCell id="FEsmItpbJhf-vHp7Gewb-2" value="" style="edgeStyle=orthogonalEdgeStyle;rounded=0;orthogonalLoop=1;jettySize=auto;html=1;fontSize=15;strokeWidth=2;" parent="FEsmItpbJhf-vHp7Gewb-1" source="FEsmItpbJhf-vHp7Gewb-3" target="FEsmItpbJhf-vHp7Gewb-5" edge="1">
          <mxGeometry relative="1" as="geometry" />
        </mxCell>
        <mxCell id="FEsmItpbJhf-vHp7Gewb-3" value="Init" style="whiteSpace=wrap;html=1;rounded=1;arcSize=14;strokeWidth=2;fontSize=15;strokeColor=#083CCC;" parent="FEsmItpbJhf-vHp7Gewb-1" vertex="1">
          <mxGeometry x="130" y="240" width="120" height="60" as="geometry" />
        </mxCell>
        <mxCell id="FEsmItpbJhf-vHp7Gewb-4" value="" style="edgeStyle=orthogonalEdgeStyle;rounded=0;orthogonalLoop=1;jettySize=auto;html=1;strokeWidth=2;fontSize=15;" parent="FEsmItpbJhf-vHp7Gewb-1" source="FEsmItpbJhf-vHp7Gewb-5" target="FEsmItpbJhf-vHp7Gewb-10" edge="1">
          <mxGeometry relative="1" as="geometry" />
        </mxCell>
        <mxCell id="FEsmItpbJhf-vHp7Gewb-5" value="Read the full RDS (main) string" style="whiteSpace=wrap;html=1;fontSize=15;rounded=1;arcSize=14;strokeWidth=2;strokeColor=#083CCC;" parent="FEsmItpbJhf-vHp7Gewb-1" vertex="1">
          <mxGeometry x="300" y="240" width="120" height="60" as="geometry" />
        </mxCell>
        <mxCell id="FEsmItpbJhf-vHp7Gewb-8" value="" style="edgeStyle=orthogonalEdgeStyle;rounded=0;orthogonalLoop=1;jettySize=auto;html=1;strokeWidth=2;fontSize=15;" parent="FEsmItpbJhf-vHp7Gewb-1" source="FEsmItpbJhf-vHp7Gewb-10" target="FEsmItpbJhf-vHp7Gewb-12" edge="1">
          <mxGeometry relative="1" as="geometry" />
        </mxCell>
        <mxCell id="FEsmItpbJhf-vHp7Gewb-9" value="Yes" style="edgeLabel;html=1;align=center;verticalAlign=middle;resizable=0;points=[];fontSize=15;" parent="FEsmItpbJhf-vHp7Gewb-8" vertex="1" connectable="0">
          <mxGeometry x="0.7309" relative="1" as="geometry">
            <mxPoint x="-18" y="13" as="offset" />
          </mxGeometry>
        </mxCell>
        <mxCell id="X5sA547tqsVw-hwfMl8B-1" style="edgeStyle=orthogonalEdgeStyle;rounded=0;orthogonalLoop=1;jettySize=auto;html=1;exitX=0;exitY=0.5;exitDx=0;exitDy=0;entryX=1;entryY=0.5;entryDx=0;entryDy=0;strokeWidth=2;entryPerimeter=0;" parent="FEsmItpbJhf-vHp7Gewb-1" source="FEsmItpbJhf-vHp7Gewb-10" target="2WbMc8FrzzfrUmQWrjDA-0" edge="1">
          <mxGeometry relative="1" as="geometry">
            <mxPoint x="250" y="385" as="targetPoint" />
          </mxGeometry>
        </mxCell>
        <mxCell id="FEsmItpbJhf-vHp7Gewb-10" value="String &lt;br&gt;length &lt;br&gt;is &amp;gt; 0 ?" style="rhombus;whiteSpace=wrap;html=1;fontSize=15;rounded=1;arcSize=14;strokeWidth=2;strokeColor=#006600;" parent="FEsmItpbJhf-vHp7Gewb-1" vertex="1">
          <mxGeometry x="305" y="340" width="110" height="90" as="geometry" />
        </mxCell>
        <mxCell id="_VGoiaqG7UrL1CHFCAbF-0" value="" style="edgeStyle=orthogonalEdgeStyle;rounded=0;orthogonalLoop=1;jettySize=auto;html=1;strokeWidth=2;fontSize=15;" parent="FEsmItpbJhf-vHp7Gewb-1" source="FEsmItpbJhf-vHp7Gewb-12" target="FEsmItpbJhf-vHp7Gewb-17" edge="1">
          <mxGeometry relative="1" as="geometry" />
        </mxCell>
        <mxCell id="FEsmItpbJhf-vHp7Gewb-12" value="Get the first separator&amp;nbsp;position" style="whiteSpace=wrap;html=1;fontSize=15;rounded=1;arcSize=14;strokeWidth=2;strokeColor=#083CCC;" parent="FEsmItpbJhf-vHp7Gewb-1" vertex="1">
          <mxGeometry x="450" y="355" width="120" height="60" as="geometry" />
        </mxCell>
        <mxCell id="FEsmItpbJhf-vHp7Gewb-15" value="" style="edgeStyle=orthogonalEdgeStyle;rounded=0;orthogonalLoop=1;jettySize=auto;html=1;strokeWidth=2;fontSize=15;exitX=0.5;exitY=1;exitDx=0;exitDy=0;entryX=1;entryY=0.5;entryDx=0;entryDy=0;" parent="FEsmItpbJhf-vHp7Gewb-1" source="FEsmItpbJhf-vHp7Gewb-17" target="FEsmItpbJhf-vHp7Gewb-19" edge="1">
          <mxGeometry relative="1" as="geometry">
            <mxPoint x="666" y="450" as="sourcePoint" />
            <Array as="points">
              <mxPoint x="666" y="510" />
            </Array>
          </mxGeometry>
        </mxCell>
        <mxCell id="FEsmItpbJhf-vHp7Gewb-16" value="Yes" style="edgeLabel;html=1;align=center;verticalAlign=middle;resizable=0;points=[];fontSize=15;" parent="FEsmItpbJhf-vHp7Gewb-15" vertex="1" connectable="0">
          <mxGeometry x="0.7372" relative="1" as="geometry">
            <mxPoint x="5" y="-60" as="offset" />
          </mxGeometry>
        </mxCell>
        <mxCell id="_VGoiaqG7UrL1CHFCAbF-1" style="edgeStyle=orthogonalEdgeStyle;rounded=0;orthogonalLoop=1;jettySize=auto;html=1;exitX=1;exitY=0.5;exitDx=0;exitDy=0;entryX=0.555;entryY=1.038;entryDx=0;entryDy=0;entryPerimeter=0;strokeWidth=2;fontSize=15;" parent="FEsmItpbJhf-vHp7Gewb-1" source="FEsmItpbJhf-vHp7Gewb-17" target="2WbMc8FrzzfrUmQWrjDA-0" edge="1">
          <mxGeometry relative="1" as="geometry">
            <Array as="points">
              <mxPoint x="741" y="385" />
              <mxPoint x="741" y="570" />
              <mxPoint x="191" y="570" />
            </Array>
          </mxGeometry>
        </mxCell>
        <mxCell id="FEsmItpbJhf-vHp7Gewb-17" value="Was the separator&lt;br&gt;&amp;nbsp;found?" style="rhombus;whiteSpace=wrap;html=1;fontSize=15;rounded=1;arcSize=14;strokeWidth=2;strokeColor=#006600;" parent="FEsmItpbJhf-vHp7Gewb-1" vertex="1">
          <mxGeometry x="611" y="340" width="110" height="90" as="geometry" />
        </mxCell>
        <mxCell id="FEsmItpbJhf-vHp7Gewb-18" value="" style="edgeStyle=orthogonalEdgeStyle;rounded=0;orthogonalLoop=1;jettySize=auto;html=1;strokeWidth=2;fontSize=15;" parent="FEsmItpbJhf-vHp7Gewb-1" source="FEsmItpbJhf-vHp7Gewb-19" target="FEsmItpbJhf-vHp7Gewb-21" edge="1">
          <mxGeometry relative="1" as="geometry" />
        </mxCell>
        <mxCell id="FEsmItpbJhf-vHp7Gewb-19" value="Copy the string up to separator" style="whiteSpace=wrap;html=1;fontSize=15;rounded=1;arcSize=14;strokeWidth=2;strokeColor=#083CCC;" parent="FEsmItpbJhf-vHp7Gewb-1" vertex="1">
          <mxGeometry x="511" y="480" width="120" height="60" as="geometry" />
        </mxCell>
        <mxCell id="X5sA547tqsVw-hwfMl8B-0" style="edgeStyle=orthogonalEdgeStyle;rounded=0;orthogonalLoop=1;jettySize=auto;html=1;exitX=0;exitY=0.5;exitDx=0;exitDy=0;entryX=1;entryY=0.5;entryDx=0;entryDy=0;strokeWidth=2;" parent="FEsmItpbJhf-vHp7Gewb-1" source="FEsmItpbJhf-vHp7Gewb-21" target="FEsmItpbJhf-vHp7Gewb-23" edge="1">
          <mxGeometry relative="1" as="geometry" />
        </mxCell>
        <mxCell id="FEsmItpbJhf-vHp7Gewb-21" value="Store the new string in a variable" style="whiteSpace=wrap;html=1;fontSize=15;strokeColor=#083CCC;rounded=1;arcSize=14;strokeWidth=2;" parent="FEsmItpbJhf-vHp7Gewb-1" vertex="1">
          <mxGeometry x="365" y="480" width="120" height="60" as="geometry" />
        </mxCell>
        <mxCell id="FEsmItpbJhf-vHp7Gewb-22" style="edgeStyle=orthogonalEdgeStyle;rounded=0;orthogonalLoop=1;jettySize=auto;html=1;entryX=0.5;entryY=1;entryDx=0;entryDy=0;strokeWidth=2;fontSize=15;exitX=0.5;exitY=0;exitDx=0;exitDy=0;" parent="FEsmItpbJhf-vHp7Gewb-1" source="FEsmItpbJhf-vHp7Gewb-23" target="FEsmItpbJhf-vHp7Gewb-10" edge="1">
          <mxGeometry relative="1" as="geometry" />
        </mxCell>
        <mxCell id="FEsmItpbJhf-vHp7Gewb-23" value="Remove saved string from main string" style="whiteSpace=wrap;html=1;fontSize=15;strokeColor=#083CCC;rounded=1;arcSize=14;strokeWidth=2;" parent="FEsmItpbJhf-vHp7Gewb-1" vertex="1">
          <mxGeometry x="221" y="480" width="120" height="60" as="geometry" />
        </mxCell>
        <mxCell id="X5sA547tqsVw-hwfMl8B-2" value="No" style="edgeLabel;html=1;align=center;verticalAlign=middle;resizable=0;points=[];fontSize=15;" parent="FEsmItpbJhf-vHp7Gewb-1" vertex="1" connectable="0">
          <mxGeometry x="286.99977848395577" y="369.9963555800899" as="geometry" />
        </mxCell>
        <mxCell id="2WbMc8FrzzfrUmQWrjDA-0" value="&lt;font style=&quot;font-size: 15px;&quot;&gt;Return all the new strings&lt;/font&gt;" style="strokeWidth=2;html=1;shape=mxgraph.flowchart.terminator;whiteSpace=wrap;strokeColor=#FF9933;" parent="FEsmItpbJhf-vHp7Gewb-1" vertex="1">
          <mxGeometry x="130" y="352.5" width="110" height="65" as="geometry" />
        </mxCell>
        <mxCell id="_VGoiaqG7UrL1CHFCAbF-2" value="No" style="edgeLabel;html=1;align=center;verticalAlign=middle;resizable=0;points=[];fontSize=15;" parent="FEsmItpbJhf-vHp7Gewb-1" vertex="1" connectable="0">
          <mxGeometry x="730.9997784839558" y="369.9963555800899" as="geometry" />
        </mxCell>
      </root>
    </mxGraphModel>
  </diagram>
  <diagram name="Send" id="SjxvrYovgt1Y9rIYnSZE">
    <mxGraphModel dx="2200" dy="1330" grid="1" gridSize="10" guides="1" tooltips="1" connect="1" arrows="1" fold="1" page="1" pageScale="1" pageWidth="827" pageHeight="1169" math="0" shadow="0">
      <root>
        <mxCell id="6eBpI4qsIE7H_do5Kh89-0" />
        <mxCell id="6eBpI4qsIE7H_do5Kh89-1" parent="6eBpI4qsIE7H_do5Kh89-0" />
        <mxCell id="eaCpI8tr9A6rEmn8ZwiW-2" value="" style="edgeStyle=orthogonalEdgeStyle;rounded=0;orthogonalLoop=1;jettySize=auto;html=1;strokeWidth=2;" parent="6eBpI4qsIE7H_do5Kh89-1" source="6eBpI4qsIE7H_do5Kh89-3" target="eaCpI8tr9A6rEmn8ZwiW-0" edge="1">
          <mxGeometry relative="1" as="geometry" />
        </mxCell>
        <mxCell id="6eBpI4qsIE7H_do5Kh89-3" value="Set Baudrate to 2400 bits/sec" style="whiteSpace=wrap;html=1;rounded=1;arcSize=14;strokeWidth=2;fontSize=15;strokeColor=#083CCC;" parent="6eBpI4qsIE7H_do5Kh89-1" vertex="1">
          <mxGeometry x="200" y="210" width="120" height="60" as="geometry" />
        </mxCell>
        <mxCell id="A9BHJh5NEoy_yT9hyx4i-7" value="" style="edgeStyle=orthogonalEdgeStyle;rounded=0;orthogonalLoop=1;jettySize=auto;html=1;strokeWidth=2;" edge="1" parent="6eBpI4qsIE7H_do5Kh89-1" source="w80BLAe8Lb4IGs4gdi1d-0" target="A9BHJh5NEoy_yT9hyx4i-6">
          <mxGeometry relative="1" as="geometry" />
        </mxCell>
        <mxCell id="w80BLAe8Lb4IGs4gdi1d-0" value="Send PS through serial port" style="whiteSpace=wrap;html=1;rounded=1;arcSize=14;strokeWidth=2;fontSize=15;strokeColor=#083CCC;" parent="6eBpI4qsIE7H_do5Kh89-1" vertex="1">
          <mxGeometry x="353" y="290" width="120" height="60" as="geometry" />
        </mxCell>
        <mxCell id="A9BHJh5NEoy_yT9hyx4i-3" value="" style="edgeStyle=orthogonalEdgeStyle;rounded=0;orthogonalLoop=1;jettySize=auto;html=1;strokeWidth=2;" edge="1" parent="6eBpI4qsIE7H_do5Kh89-1" source="w80BLAe8Lb4IGs4gdi1d-2" target="A9BHJh5NEoy_yT9hyx4i-2">
          <mxGeometry relative="1" as="geometry" />
        </mxCell>
        <mxCell id="w80BLAe8Lb4IGs4gdi1d-2" value="Send PTY through serial port" style="whiteSpace=wrap;html=1;rounded=1;arcSize=14;strokeWidth=2;fontSize=15;strokeColor=#083CCC;" parent="6eBpI4qsIE7H_do5Kh89-1" vertex="1">
          <mxGeometry x="664" y="290" width="120" height="60" as="geometry" />
        </mxCell>
        <mxCell id="A9BHJh5NEoy_yT9hyx4i-14" value="" style="edgeStyle=orthogonalEdgeStyle;rounded=0;orthogonalLoop=1;jettySize=auto;html=1;strokeWidth=2;" edge="1" parent="6eBpI4qsIE7H_do5Kh89-1" source="w80BLAe8Lb4IGs4gdi1d-3" target="A9BHJh5NEoy_yT9hyx4i-10">
          <mxGeometry relative="1" as="geometry" />
        </mxCell>
        <mxCell id="w80BLAe8Lb4IGs4gdi1d-3" value="Send AF through serial port" style="whiteSpace=wrap;html=1;rounded=1;arcSize=14;strokeWidth=2;fontSize=15;strokeColor=#083CCC;" parent="6eBpI4qsIE7H_do5Kh89-1" vertex="1">
          <mxGeometry x="504" y="380" width="120" height="60" as="geometry" />
        </mxCell>
        <mxCell id="A9BHJh5NEoy_yT9hyx4i-12" value="" style="edgeStyle=orthogonalEdgeStyle;rounded=0;orthogonalLoop=1;jettySize=auto;html=1;strokeWidth=2;" edge="1" parent="6eBpI4qsIE7H_do5Kh89-1" source="w80BLAe8Lb4IGs4gdi1d-4" target="A9BHJh5NEoy_yT9hyx4i-9">
          <mxGeometry relative="1" as="geometry" />
        </mxCell>
        <mxCell id="w80BLAe8Lb4IGs4gdi1d-4" value="Send PI through serial port" style="whiteSpace=wrap;html=1;rounded=1;arcSize=14;strokeWidth=2;fontSize=15;strokeColor=#083CCC;" parent="6eBpI4qsIE7H_do5Kh89-1" vertex="1">
          <mxGeometry x="200" y="380" width="120" height="60" as="geometry" />
        </mxCell>
        <mxCell id="YaANUYziRz3WyfhdAvw3-3" value="" style="edgeStyle=orthogonalEdgeStyle;rounded=0;orthogonalLoop=1;jettySize=auto;html=1;strokeWidth=2;" edge="1" parent="6eBpI4qsIE7H_do5Kh89-1" source="w80BLAe8Lb4IGs4gdi1d-11" target="YaANUYziRz3WyfhdAvw3-2">
          <mxGeometry relative="1" as="geometry" />
        </mxCell>
        <mxCell id="w80BLAe8Lb4IGs4gdi1d-11" value="Set switch control pin to high level" style="whiteSpace=wrap;html=1;rounded=1;arcSize=14;strokeWidth=2;fontSize=15;strokeColor=#083CCC;" parent="6eBpI4qsIE7H_do5Kh89-1" vertex="1">
          <mxGeometry x="664" y="480" width="120" height="60" as="geometry" />
        </mxCell>
        <mxCell id="A9BHJh5NEoy_yT9hyx4i-1" value="" style="edgeStyle=orthogonalEdgeStyle;rounded=0;orthogonalLoop=1;jettySize=auto;html=1;strokeWidth=2;" edge="1" parent="6eBpI4qsIE7H_do5Kh89-1" source="QXUZatQ-Ps-UmLnR8fdv-17" target="w80BLAe8Lb4IGs4gdi1d-2">
          <mxGeometry relative="1" as="geometry" />
        </mxCell>
        <mxCell id="QXUZatQ-Ps-UmLnR8fdv-17" value="Read all RDS commands" style="whiteSpace=wrap;html=1;rounded=1;arcSize=14;strokeWidth=2;fontSize=15;strokeColor=#083CCC;" parent="6eBpI4qsIE7H_do5Kh89-1" vertex="1">
          <mxGeometry x="664" y="210" width="120" height="60" as="geometry" />
        </mxCell>
        <mxCell id="U5sQmj5sVOuKBLMSsAKy-1" value="" style="edgeStyle=orthogonalEdgeStyle;rounded=0;orthogonalLoop=1;jettySize=auto;html=1;strokeWidth=2;" edge="1" parent="6eBpI4qsIE7H_do5Kh89-1" source="QXUZatQ-Ps-UmLnR8fdv-28" target="U5sQmj5sVOuKBLMSsAKy-0">
          <mxGeometry relative="1" as="geometry" />
        </mxCell>
        <mxCell id="QXUZatQ-Ps-UmLnR8fdv-28" value="Set switch control pin to low level" style="whiteSpace=wrap;html=1;rounded=1;arcSize=14;strokeWidth=2;fontSize=15;strokeColor=#083CCC;" parent="6eBpI4qsIE7H_do5Kh89-1" vertex="1">
          <mxGeometry x="353" y="480" width="120" height="60" as="geometry" />
        </mxCell>
        <mxCell id="_JGb_suMlguptJTKz6Ui-1" value="" style="edgeStyle=orthogonalEdgeStyle;rounded=0;orthogonalLoop=1;jettySize=auto;html=1;strokeWidth=2;fontSize=15;" parent="6eBpI4qsIE7H_do5Kh89-1" source="_JGb_suMlguptJTKz6Ui-0" target="6eBpI4qsIE7H_do5Kh89-3" edge="1">
          <mxGeometry relative="1" as="geometry" />
        </mxCell>
        <mxCell id="_JGb_suMlguptJTKz6Ui-0" value="Init" style="whiteSpace=wrap;html=1;rounded=1;arcSize=14;strokeWidth=2;fontSize=15;strokeColor=#083CCC;" parent="6eBpI4qsIE7H_do5Kh89-1" vertex="1">
          <mxGeometry x="44" y="210" width="120" height="60" as="geometry" />
        </mxCell>
        <mxCell id="eaCpI8tr9A6rEmn8ZwiW-3" value="" style="edgeStyle=orthogonalEdgeStyle;rounded=0;orthogonalLoop=1;jettySize=auto;html=1;strokeWidth=2;" parent="6eBpI4qsIE7H_do5Kh89-1" source="eaCpI8tr9A6rEmn8ZwiW-0" target="eaCpI8tr9A6rEmn8ZwiW-1" edge="1">
          <mxGeometry relative="1" as="geometry" />
        </mxCell>
        <mxCell id="eaCpI8tr9A6rEmn8ZwiW-0" value="Set a digital PWM pin to output the audio&amp;nbsp;" style="whiteSpace=wrap;html=1;rounded=1;arcSize=14;strokeWidth=2;fontSize=15;strokeColor=#083CCC;" parent="6eBpI4qsIE7H_do5Kh89-1" vertex="1">
          <mxGeometry x="353" y="210" width="120" height="60" as="geometry" />
        </mxCell>
        <mxCell id="A9BHJh5NEoy_yT9hyx4i-0" value="" style="edgeStyle=orthogonalEdgeStyle;rounded=0;orthogonalLoop=1;jettySize=auto;html=1;strokeWidth=2;" edge="1" parent="6eBpI4qsIE7H_do5Kh89-1" source="eaCpI8tr9A6rEmn8ZwiW-1" target="QXUZatQ-Ps-UmLnR8fdv-17">
          <mxGeometry relative="1" as="geometry" />
        </mxCell>
        <mxCell id="eaCpI8tr9A6rEmn8ZwiW-1" value="Set digital pin as output to control the switch" style="whiteSpace=wrap;html=1;rounded=1;arcSize=14;strokeWidth=2;fontSize=15;strokeColor=#083CCC;" parent="6eBpI4qsIE7H_do5Kh89-1" vertex="1">
          <mxGeometry x="507" y="210" width="120" height="60" as="geometry" />
        </mxCell>
        <mxCell id="A9BHJh5NEoy_yT9hyx4i-5" value="" style="edgeStyle=orthogonalEdgeStyle;rounded=0;orthogonalLoop=1;jettySize=auto;html=1;strokeWidth=2;" edge="1" parent="6eBpI4qsIE7H_do5Kh89-1" source="A9BHJh5NEoy_yT9hyx4i-2" target="w80BLAe8Lb4IGs4gdi1d-0">
          <mxGeometry relative="1" as="geometry" />
        </mxCell>
        <mxCell id="A9BHJh5NEoy_yT9hyx4i-2" value="Send RT through serial port" style="whiteSpace=wrap;html=1;rounded=1;arcSize=14;strokeWidth=2;fontSize=15;strokeColor=#083CCC;" vertex="1" parent="6eBpI4qsIE7H_do5Kh89-1">
          <mxGeometry x="504" y="290" width="120" height="60" as="geometry" />
        </mxCell>
        <mxCell id="A9BHJh5NEoy_yT9hyx4i-8" value="" style="edgeStyle=orthogonalEdgeStyle;rounded=0;orthogonalLoop=1;jettySize=auto;html=1;strokeWidth=2;" edge="1" parent="6eBpI4qsIE7H_do5Kh89-1" source="A9BHJh5NEoy_yT9hyx4i-6" target="w80BLAe8Lb4IGs4gdi1d-4">
          <mxGeometry relative="1" as="geometry" />
        </mxCell>
        <mxCell id="A9BHJh5NEoy_yT9hyx4i-6" value="Reads the encoder response" style="whiteSpace=wrap;html=1;rounded=1;arcSize=14;strokeWidth=2;fontSize=15;strokeColor=#083CCC;" vertex="1" parent="6eBpI4qsIE7H_do5Kh89-1">
          <mxGeometry x="200" y="290" width="120" height="60" as="geometry" />
        </mxCell>
        <mxCell id="A9BHJh5NEoy_yT9hyx4i-13" value="" style="edgeStyle=orthogonalEdgeStyle;rounded=0;orthogonalLoop=1;jettySize=auto;html=1;strokeWidth=2;" edge="1" parent="6eBpI4qsIE7H_do5Kh89-1" source="A9BHJh5NEoy_yT9hyx4i-9" target="w80BLAe8Lb4IGs4gdi1d-3">
          <mxGeometry relative="1" as="geometry" />
        </mxCell>
        <mxCell id="A9BHJh5NEoy_yT9hyx4i-9" value="Reads the encoder response" style="whiteSpace=wrap;html=1;rounded=1;arcSize=14;strokeWidth=2;fontSize=15;strokeColor=#083CCC;" vertex="1" parent="6eBpI4qsIE7H_do5Kh89-1">
          <mxGeometry x="353" y="380" width="120" height="60" as="geometry" />
        </mxCell>
        <mxCell id="A9BHJh5NEoy_yT9hyx4i-15" value="" style="edgeStyle=orthogonalEdgeStyle;rounded=0;orthogonalLoop=1;jettySize=auto;html=1;strokeWidth=2;" edge="1" parent="6eBpI4qsIE7H_do5Kh89-1" source="A9BHJh5NEoy_yT9hyx4i-10" target="w80BLAe8Lb4IGs4gdi1d-11">
          <mxGeometry relative="1" as="geometry" />
        </mxCell>
        <mxCell id="A9BHJh5NEoy_yT9hyx4i-10" value="Reads the encoder response" style="whiteSpace=wrap;html=1;rounded=1;arcSize=14;strokeWidth=2;fontSize=15;strokeColor=#083CCC;" vertex="1" parent="6eBpI4qsIE7H_do5Kh89-1">
          <mxGeometry x="664" y="380" width="120" height="60" as="geometry" />
        </mxCell>
        <mxCell id="YaANUYziRz3WyfhdAvw3-4" value="" style="edgeStyle=orthogonalEdgeStyle;rounded=0;orthogonalLoop=1;jettySize=auto;html=1;strokeWidth=2;" edge="1" parent="6eBpI4qsIE7H_do5Kh89-1" source="YaANUYziRz3WyfhdAvw3-2" target="QXUZatQ-Ps-UmLnR8fdv-28">
          <mxGeometry relative="1" as="geometry" />
        </mxCell>
        <mxCell id="YaANUYziRz3WyfhdAvw3-2" value="Play audio 2x" style="shape=parallelogram;perimeter=parallelogramPerimeter;whiteSpace=wrap;html=1;fixedSize=1;strokeColor=#FF3333;strokeWidth=2;" vertex="1" parent="6eBpI4qsIE7H_do5Kh89-1">
          <mxGeometry x="504" y="480" width="120" height="60" as="geometry" />
        </mxCell>
        <mxCell id="U5sQmj5sVOuKBLMSsAKy-0" value="&lt;font style=&quot;font-size: 15px;&quot;&gt;Return report&lt;/font&gt;" style="strokeWidth=2;html=1;shape=mxgraph.flowchart.terminator;whiteSpace=wrap;strokeColor=#FF9933;" vertex="1" parent="6eBpI4qsIE7H_do5Kh89-1">
          <mxGeometry x="200" y="480" width="100" height="60" as="geometry" />
        </mxCell>
      </root>
    </mxGraphModel>
  </diagram>
  <diagram name="WAV" id="864PWack5tqSvwHX_OiY">
    <mxGraphModel dx="1257" dy="760" grid="1" gridSize="10" guides="1" tooltips="1" connect="1" arrows="1" fold="1" page="1" pageScale="1" pageWidth="827" pageHeight="1169" math="0" shadow="0">
      <root>
        <mxCell id="et4vStH0NtlD5pGg7RN_-0" />
        <mxCell id="et4vStH0NtlD5pGg7RN_-1" parent="et4vStH0NtlD5pGg7RN_-0" />
        <mxCell id="zvTvs3mGLOR7r44YBGZO-9" value="" style="edgeStyle=orthogonalEdgeStyle;rounded=0;orthogonalLoop=1;jettySize=auto;html=1;strokeWidth=2;fontSize=15;" parent="et4vStH0NtlD5pGg7RN_-1" source="et4vStH0NtlD5pGg7RN_-17" target="et4vStH0NtlD5pGg7RN_-32" edge="1">
          <mxGeometry relative="1" as="geometry" />
        </mxCell>
        <mxCell id="et4vStH0NtlD5pGg7RN_-17" value="ICR1=500" style="whiteSpace=wrap;html=1;rounded=1;arcSize=14;strokeWidth=2;fontSize=15;strokeColor=#083CCC;" parent="et4vStH0NtlD5pGg7RN_-1" vertex="1">
          <mxGeometry x="480" y="200" width="120" height="60" as="geometry" />
        </mxCell>
        <mxCell id="zvTvs3mGLOR7r44YBGZO-8" value="" style="edgeStyle=orthogonalEdgeStyle;rounded=0;orthogonalLoop=1;jettySize=auto;html=1;strokeWidth=2;fontSize=15;" parent="et4vStH0NtlD5pGg7RN_-1" source="et4vStH0NtlD5pGg7RN_-19" target="et4vStH0NtlD5pGg7RN_-17" edge="1">
          <mxGeometry relative="1" as="geometry" />
        </mxCell>
        <mxCell id="et4vStH0NtlD5pGg7RN_-19" value="Configure Timer 1 for Fast PWM, non-inverted output and no prescaler on registers A and B" style="whiteSpace=wrap;html=1;rounded=1;arcSize=14;strokeWidth=2;fontSize=15;strokeColor=#083CCC;" parent="et4vStH0NtlD5pGg7RN_-1" vertex="1">
          <mxGeometry x="455" y="60" width="170" height="90" as="geometry" />
        </mxCell>
        <mxCell id="et4vStH0NtlD5pGg7RN_-29" value="" style="edgeStyle=orthogonalEdgeStyle;rounded=0;orthogonalLoop=1;jettySize=auto;html=1;strokeWidth=2;fontSize=15;entryX=0.5;entryY=0;entryDx=0;entryDy=0;" parent="et4vStH0NtlD5pGg7RN_-1" source="et4vStH0NtlD5pGg7RN_-30" target="zvTvs3mGLOR7r44YBGZO-4" edge="1">
          <mxGeometry relative="1" as="geometry" />
        </mxCell>
        <mxCell id="et4vStH0NtlD5pGg7RN_-30" value="Play WAV file&lt;br style=&quot;border-color: var(--border-color); font-size: 15px;&quot;&gt;&amp;nbsp;on digital pin" style="strokeWidth=2;html=1;shape=mxgraph.flowchart.terminator;whiteSpace=wrap;strokeColor=#FF3333;fontSize=15;fillColor=#FFFFFF;" parent="et4vStH0NtlD5pGg7RN_-1" vertex="1">
          <mxGeometry x="135" y="80" width="130" height="50" as="geometry" />
        </mxCell>
        <mxCell id="et4vStH0NtlD5pGg7RN_-31" value="" style="edgeStyle=orthogonalEdgeStyle;rounded=0;orthogonalLoop=1;jettySize=auto;html=1;strokeWidth=2;fontSize=15;" parent="et4vStH0NtlD5pGg7RN_-1" source="et4vStH0NtlD5pGg7RN_-32" target="et4vStH0NtlD5pGg7RN_-33" edge="1">
          <mxGeometry relative="1" as="geometry" />
        </mxCell>
        <mxCell id="et4vStH0NtlD5pGg7RN_-32" value="Enable global interrupts" style="whiteSpace=wrap;html=1;rounded=1;arcSize=14;strokeWidth=2;fontSize=15;strokeColor=#083CCC;" parent="et4vStH0NtlD5pGg7RN_-1" vertex="1">
          <mxGeometry x="480" y="300" width="120" height="60" as="geometry" />
        </mxCell>
        <mxCell id="VtFeCgFQTbxKZol0-Aza-9" value="" style="edgeStyle=orthogonalEdgeStyle;rounded=0;orthogonalLoop=1;jettySize=auto;html=1;strokeWidth=2;fontSize=15;" parent="et4vStH0NtlD5pGg7RN_-1" source="et4vStH0NtlD5pGg7RN_-33" target="VtFeCgFQTbxKZol0-Aza-7" edge="1">
          <mxGeometry relative="1" as="geometry" />
        </mxCell>
        <mxCell id="et4vStH0NtlD5pGg7RN_-33" value="Enable Timer1 Output Compare A interrupt" style="whiteSpace=wrap;html=1;rounded=1;arcSize=14;strokeWidth=2;fontSize=15;strokeColor=#083CCC;" parent="et4vStH0NtlD5pGg7RN_-1" vertex="1">
          <mxGeometry x="310" y="300" width="120" height="60" as="geometry" />
        </mxCell>
        <mxCell id="VtFeCgFQTbxKZol0-Aza-11" style="edgeStyle=orthogonalEdgeStyle;rounded=0;orthogonalLoop=1;jettySize=auto;html=1;entryX=0;entryY=0.5;entryDx=0;entryDy=0;strokeWidth=2;exitX=0;exitY=0.5;exitDx=0;exitDy=0;fontSize=15;" parent="et4vStH0NtlD5pGg7RN_-1" source="VtFeCgFQTbxKZol0-Aza-0" target="VtFeCgFQTbxKZol0-Aza-7" edge="1">
          <mxGeometry relative="1" as="geometry">
            <Array as="points">
              <mxPoint x="120" y="450" />
              <mxPoint x="120" y="330" />
            </Array>
          </mxGeometry>
        </mxCell>
        <mxCell id="VtFeCgFQTbxKZol0-Aza-12" value="No" style="edgeLabel;html=1;align=center;verticalAlign=middle;resizable=0;points=[];fontSize=15;" parent="VtFeCgFQTbxKZol0-Aza-11" vertex="1" connectable="0">
          <mxGeometry x="-0.1058" relative="1" as="geometry">
            <mxPoint x="20" y="61" as="offset" />
          </mxGeometry>
        </mxCell>
        <mxCell id="7DANDPm7al9Gb3sHI6OB-1" value="" style="edgeStyle=orthogonalEdgeStyle;rounded=0;orthogonalLoop=1;jettySize=auto;html=1;strokeWidth=2;fontSize=15;" parent="et4vStH0NtlD5pGg7RN_-1" source="VtFeCgFQTbxKZol0-Aza-0" target="7DANDPm7al9Gb3sHI6OB-0" edge="1">
          <mxGeometry relative="1" as="geometry" />
        </mxCell>
        <mxCell id="7DANDPm7al9Gb3sHI6OB-2" value="Yes" style="edgeLabel;html=1;align=center;verticalAlign=middle;resizable=0;points=[];fontSize=15;" parent="7DANDPm7al9Gb3sHI6OB-1" vertex="1" connectable="0">
          <mxGeometry x="0.651" y="-1" relative="1" as="geometry">
            <mxPoint x="-17" y="9" as="offset" />
          </mxGeometry>
        </mxCell>
        <mxCell id="VtFeCgFQTbxKZol0-Aza-0" value="Timer 1 equals&lt;br&gt;&amp;nbsp;the value &lt;br&gt;of register A" style="rhombus;whiteSpace=wrap;html=1;fontSize=15;rounded=1;arcSize=14;strokeWidth=2;strokeColor=#006600;" parent="et4vStH0NtlD5pGg7RN_-1" vertex="1">
          <mxGeometry x="150" y="400" width="160" height="110" as="geometry" />
        </mxCell>
        <mxCell id="VtFeCgFQTbxKZol0-Aza-10" value="" style="edgeStyle=orthogonalEdgeStyle;rounded=0;orthogonalLoop=1;jettySize=auto;html=1;strokeWidth=2;fontSize=15;" parent="et4vStH0NtlD5pGg7RN_-1" source="VtFeCgFQTbxKZol0-Aza-7" target="VtFeCgFQTbxKZol0-Aza-0" edge="1">
          <mxGeometry relative="1" as="geometry" />
        </mxCell>
        <mxCell id="VtFeCgFQTbxKZol0-Aza-7" value="Timer 1 count" style="whiteSpace=wrap;html=1;rounded=1;arcSize=14;strokeWidth=2;fontSize=15;strokeColor=#083CCC;" parent="et4vStH0NtlD5pGg7RN_-1" vertex="1">
          <mxGeometry x="160" y="300" width="120" height="60" as="geometry" />
        </mxCell>
        <mxCell id="7DANDPm7al9Gb3sHI6OB-4" value="" style="edgeStyle=orthogonalEdgeStyle;rounded=0;orthogonalLoop=1;jettySize=auto;html=1;strokeWidth=2;fontSize=15;" parent="et4vStH0NtlD5pGg7RN_-1" source="7DANDPm7al9Gb3sHI6OB-0" target="7DANDPm7al9Gb3sHI6OB-3" edge="1">
          <mxGeometry relative="1" as="geometry" />
        </mxCell>
        <mxCell id="7DANDPm7al9Gb3sHI6OB-0" value="Read byte from WAV file" style="whiteSpace=wrap;html=1;rounded=1;arcSize=14;strokeWidth=2;fontSize=15;strokeColor=#083CCC;" parent="et4vStH0NtlD5pGg7RN_-1" vertex="1">
          <mxGeometry x="320" y="420" width="120" height="60" as="geometry" />
        </mxCell>
        <mxCell id="7DANDPm7al9Gb3sHI6OB-6" value="" style="edgeStyle=orthogonalEdgeStyle;rounded=0;orthogonalLoop=1;jettySize=auto;html=1;strokeWidth=2;fontSize=15;entryX=0.5;entryY=0;entryDx=0;entryDy=0;" parent="et4vStH0NtlD5pGg7RN_-1" source="7DANDPm7al9Gb3sHI6OB-3" target="7DANDPm7al9Gb3sHI6OB-5" edge="1">
          <mxGeometry relative="1" as="geometry">
            <Array as="points" />
          </mxGeometry>
        </mxCell>
        <mxCell id="7DANDPm7al9Gb3sHI6OB-3" value="Output audio data to PWM pin" style="whiteSpace=wrap;html=1;rounded=1;arcSize=14;strokeWidth=2;fontSize=15;strokeColor=#083CCC;" parent="et4vStH0NtlD5pGg7RN_-1" vertex="1">
          <mxGeometry x="480" y="420" width="120" height="60" as="geometry" />
        </mxCell>
        <mxCell id="RNGZPgBqr5CFOyi0-Vvt-0" value="" style="edgeStyle=orthogonalEdgeStyle;rounded=0;orthogonalLoop=1;jettySize=auto;html=1;strokeWidth=2;fontSize=15;" parent="et4vStH0NtlD5pGg7RN_-1" source="7DANDPm7al9Gb3sHI6OB-5" target="RGAcSpazdK9OYMi1_2p1-0" edge="1">
          <mxGeometry relative="1" as="geometry" />
        </mxCell>
        <mxCell id="RNGZPgBqr5CFOyi0-Vvt-1" value="No" style="edgeLabel;html=1;align=center;verticalAlign=middle;resizable=0;points=[];fontSize=15;" parent="RNGZPgBqr5CFOyi0-Vvt-0" vertex="1" connectable="0">
          <mxGeometry x="0.7448" relative="1" as="geometry">
            <mxPoint x="11" y="-23" as="offset" />
          </mxGeometry>
        </mxCell>
        <mxCell id="RNGZPgBqr5CFOyi0-Vvt-3" style="edgeStyle=orthogonalEdgeStyle;rounded=0;orthogonalLoop=1;jettySize=auto;html=1;strokeWidth=2;entryX=0;entryY=0.5;entryDx=0;entryDy=0;exitX=0;exitY=0.5;exitDx=0;exitDy=0;fontSize=15;" parent="et4vStH0NtlD5pGg7RN_-1" source="RNGZPgBqr5CFOyi0-Vvt-4" target="VtFeCgFQTbxKZol0-Aza-7" edge="1">
          <mxGeometry relative="1" as="geometry">
            <mxPoint x="150" y="320" as="targetPoint" />
            <mxPoint x="270" y="570" as="sourcePoint" />
            <Array as="points">
              <mxPoint x="120" y="570" />
              <mxPoint x="120" y="330" />
            </Array>
          </mxGeometry>
        </mxCell>
        <mxCell id="RNGZPgBqr5CFOyi0-Vvt-5" style="edgeStyle=orthogonalEdgeStyle;rounded=0;orthogonalLoop=1;jettySize=auto;html=1;entryX=1;entryY=0.5;entryDx=0;entryDy=0;strokeWidth=2;fontSize=15;" parent="et4vStH0NtlD5pGg7RN_-1" source="7DANDPm7al9Gb3sHI6OB-5" target="RNGZPgBqr5CFOyi0-Vvt-4" edge="1">
          <mxGeometry relative="1" as="geometry" />
        </mxCell>
        <mxCell id="RNGZPgBqr5CFOyi0-Vvt-6" value="Yes" style="edgeLabel;html=1;align=center;verticalAlign=middle;resizable=0;points=[];fontSize=15;" parent="RNGZPgBqr5CFOyi0-Vvt-5" vertex="1" connectable="0">
          <mxGeometry x="-0.1857" y="-1" relative="1" as="geometry">
            <mxPoint x="6" y="11" as="offset" />
          </mxGeometry>
        </mxCell>
        <mxCell id="7DANDPm7al9Gb3sHI6OB-5" value="Is there audio&lt;br style=&quot;font-size: 15px;&quot;&gt;&amp;nbsp;to read?" style="rhombus;whiteSpace=wrap;html=1;fontSize=15;rounded=1;arcSize=14;strokeWidth=2;strokeColor=#006600;" parent="et4vStH0NtlD5pGg7RN_-1" vertex="1">
          <mxGeometry x="480" y="520" width="120" height="100" as="geometry" />
        </mxCell>
        <mxCell id="zvTvs3mGLOR7r44YBGZO-1" value="" style="edgeStyle=orthogonalEdgeStyle;rounded=0;orthogonalLoop=1;jettySize=auto;html=1;strokeWidth=2;fontSize=15;" parent="et4vStH0NtlD5pGg7RN_-1" source="RGAcSpazdK9OYMi1_2p1-0" target="zvTvs3mGLOR7r44YBGZO-0" edge="1">
          <mxGeometry relative="1" as="geometry" />
        </mxCell>
        <mxCell id="RGAcSpazdK9OYMi1_2p1-0" value="Disable Timer1 Output Compare A interrupt" style="whiteSpace=wrap;html=1;rounded=1;arcSize=14;strokeWidth=2;fontSize=15;strokeColor=#083CCC;" parent="et4vStH0NtlD5pGg7RN_-1" vertex="1">
          <mxGeometry x="480" y="660" width="120" height="60" as="geometry" />
        </mxCell>
        <mxCell id="zvTvs3mGLOR7r44YBGZO-3" value="" style="edgeStyle=orthogonalEdgeStyle;rounded=0;orthogonalLoop=1;jettySize=auto;html=1;strokeWidth=2;fontSize=15;" parent="et4vStH0NtlD5pGg7RN_-1" source="zvTvs3mGLOR7r44YBGZO-0" target="zvTvs3mGLOR7r44YBGZO-2" edge="1">
          <mxGeometry relative="1" as="geometry" />
        </mxCell>
        <mxCell id="zvTvs3mGLOR7r44YBGZO-0" value="Clear Timer1 Control Register A and B" style="whiteSpace=wrap;html=1;rounded=1;arcSize=14;strokeWidth=2;fontSize=15;strokeColor=#083CCC;" parent="et4vStH0NtlD5pGg7RN_-1" vertex="1">
          <mxGeometry x="314" y="660" width="120" height="60" as="geometry" />
        </mxCell>
        <mxCell id="RNGZPgBqr5CFOyi0-Vvt-2" style="edgeStyle=orthogonalEdgeStyle;rounded=0;orthogonalLoop=1;jettySize=auto;html=1;entryX=0;entryY=0.5;entryDx=0;entryDy=0;entryPerimeter=0;strokeWidth=2;exitX=0;exitY=0.5;exitDx=0;exitDy=0;fontSize=15;" parent="et4vStH0NtlD5pGg7RN_-1" source="zvTvs3mGLOR7r44YBGZO-2" target="et4vStH0NtlD5pGg7RN_-30" edge="1">
          <mxGeometry relative="1" as="geometry">
            <Array as="points">
              <mxPoint x="100" y="690" />
              <mxPoint x="100" y="105" />
            </Array>
          </mxGeometry>
        </mxCell>
        <mxCell id="zvTvs3mGLOR7r44YBGZO-2" value="Set digital pin to low" style="whiteSpace=wrap;html=1;rounded=1;arcSize=14;strokeWidth=2;fontSize=15;strokeColor=#083CCC;" parent="et4vStH0NtlD5pGg7RN_-1" vertex="1">
          <mxGeometry x="145" y="660" width="120" height="60" as="geometry" />
        </mxCell>
        <mxCell id="zvTvs3mGLOR7r44YBGZO-6" value="" style="edgeStyle=orthogonalEdgeStyle;rounded=0;orthogonalLoop=1;jettySize=auto;html=1;strokeWidth=2;fontSize=15;" parent="et4vStH0NtlD5pGg7RN_-1" source="zvTvs3mGLOR7r44YBGZO-4" target="zvTvs3mGLOR7r44YBGZO-5" edge="1">
          <mxGeometry relative="1" as="geometry" />
        </mxCell>
        <mxCell id="zvTvs3mGLOR7r44YBGZO-4" value="Open audio file" style="whiteSpace=wrap;html=1;rounded=1;arcSize=14;strokeWidth=2;fontSize=15;strokeColor=#083CCC;" parent="et4vStH0NtlD5pGg7RN_-1" vertex="1">
          <mxGeometry x="140" y="170" width="120" height="60" as="geometry" />
        </mxCell>
        <mxCell id="zvTvs3mGLOR7r44YBGZO-7" style="edgeStyle=orthogonalEdgeStyle;rounded=0;orthogonalLoop=1;jettySize=auto;html=1;entryX=0;entryY=0.5;entryDx=0;entryDy=0;strokeWidth=2;fontSize=15;" parent="et4vStH0NtlD5pGg7RN_-1" source="zvTvs3mGLOR7r44YBGZO-5" target="et4vStH0NtlD5pGg7RN_-19" edge="1">
          <mxGeometry relative="1" as="geometry" />
        </mxCell>
        <mxCell id="zvTvs3mGLOR7r44YBGZO-5" value="Skip file header info" style="whiteSpace=wrap;html=1;rounded=1;arcSize=14;strokeWidth=2;fontSize=15;strokeColor=#083CCC;" parent="et4vStH0NtlD5pGg7RN_-1" vertex="1">
          <mxGeometry x="294" y="170" width="120" height="60" as="geometry" />
        </mxCell>
        <mxCell id="RNGZPgBqr5CFOyi0-Vvt-4" value="Timer 1 count = 0" style="whiteSpace=wrap;html=1;rounded=1;arcSize=14;strokeWidth=2;fontSize=15;strokeColor=#083CCC;" parent="et4vStH0NtlD5pGg7RN_-1" vertex="1">
          <mxGeometry x="231" y="540" width="120" height="60" as="geometry" />
        </mxCell>
      </root>
    </mxGraphModel>
  </diagram>
  <diagram name="Cópia do WAV" id="jdGqw13feHmTPbeIKdIh">
    <mxGraphModel dx="1600" dy="967" grid="1" gridSize="10" guides="1" tooltips="1" connect="1" arrows="1" fold="1" page="1" pageScale="1" pageWidth="827" pageHeight="1169" math="0" shadow="0">
      <root>
        <mxCell id="SWNsiHUGbcFHn0X8gtFT-0" />
        <mxCell id="SWNsiHUGbcFHn0X8gtFT-1" parent="SWNsiHUGbcFHn0X8gtFT-0" />
        <mxCell id="7ie18YgwQUiWZ0Jtjgfl-11" value="" style="edgeStyle=orthogonalEdgeStyle;rounded=0;orthogonalLoop=1;jettySize=auto;html=1;strokeWidth=2;fontSize=15;" parent="SWNsiHUGbcFHn0X8gtFT-1" source="SWNsiHUGbcFHn0X8gtFT-5" target="7ie18YgwQUiWZ0Jtjgfl-7" edge="1">
          <mxGeometry relative="1" as="geometry" />
        </mxCell>
        <mxCell id="SWNsiHUGbcFHn0X8gtFT-5" value="Configure Timer 1 for Fast PWM, non-inverted output and no prescaler on registers A and B" style="whiteSpace=wrap;html=1;rounded=1;arcSize=14;strokeWidth=2;fontSize=15;strokeColor=#083CCC;" parent="SWNsiHUGbcFHn0X8gtFT-1" vertex="1">
          <mxGeometry x="580" y="105" width="170" height="90" as="geometry" />
        </mxCell>
        <mxCell id="SWNsiHUGbcFHn0X8gtFT-6" value="" style="edgeStyle=orthogonalEdgeStyle;rounded=0;orthogonalLoop=1;jettySize=auto;html=1;strokeWidth=2;fontSize=15;entryX=0;entryY=0.5;entryDx=0;entryDy=0;" parent="SWNsiHUGbcFHn0X8gtFT-1" source="SWNsiHUGbcFHn0X8gtFT-7" target="SWNsiHUGbcFHn0X8gtFT-36" edge="1">
          <mxGeometry relative="1" as="geometry" />
        </mxCell>
        <mxCell id="SWNsiHUGbcFHn0X8gtFT-7" value="Play WAV file&lt;br style=&quot;border-color: var(--border-color); font-size: 15px;&quot;&gt;&amp;nbsp;on digital pin" style="strokeWidth=2;html=1;shape=mxgraph.flowchart.terminator;whiteSpace=wrap;strokeColor=#FF3333;fontSize=15;fillColor=#FFFFFF;" parent="SWNsiHUGbcFHn0X8gtFT-1" vertex="1">
          <mxGeometry x="95" y="125" width="130" height="50" as="geometry" />
        </mxCell>
        <mxCell id="SWNsiHUGbcFHn0X8gtFT-10" value="" style="edgeStyle=orthogonalEdgeStyle;rounded=0;orthogonalLoop=1;jettySize=auto;html=1;strokeWidth=2;fontSize=15;" parent="SWNsiHUGbcFHn0X8gtFT-1" source="SWNsiHUGbcFHn0X8gtFT-11" target="SWNsiHUGbcFHn0X8gtFT-18" edge="1">
          <mxGeometry relative="1" as="geometry" />
        </mxCell>
        <mxCell id="SWNsiHUGbcFHn0X8gtFT-11" value="Enable Timer1 to Compare to register A" style="whiteSpace=wrap;html=1;rounded=1;arcSize=14;strokeWidth=2;fontSize=15;strokeColor=#083CCC;" parent="SWNsiHUGbcFHn0X8gtFT-1" vertex="1">
          <mxGeometry x="270" y="220" width="120" height="60" as="geometry" />
        </mxCell>
        <mxCell id="SWNsiHUGbcFHn0X8gtFT-14" value="" style="edgeStyle=orthogonalEdgeStyle;rounded=0;orthogonalLoop=1;jettySize=auto;html=1;strokeWidth=2;fontSize=15;" parent="SWNsiHUGbcFHn0X8gtFT-1" source="SWNsiHUGbcFHn0X8gtFT-16" target="SWNsiHUGbcFHn0X8gtFT-20" edge="1">
          <mxGeometry relative="1" as="geometry" />
        </mxCell>
        <mxCell id="SWNsiHUGbcFHn0X8gtFT-15" value="Yes" style="edgeLabel;html=1;align=center;verticalAlign=middle;resizable=0;points=[];fontSize=15;" parent="SWNsiHUGbcFHn0X8gtFT-14" vertex="1" connectable="0">
          <mxGeometry x="0.651" y="-1" relative="1" as="geometry">
            <mxPoint x="-17" y="9" as="offset" />
          </mxGeometry>
        </mxCell>
        <mxCell id="7ie18YgwQUiWZ0Jtjgfl-13" style="edgeStyle=orthogonalEdgeStyle;rounded=0;orthogonalLoop=1;jettySize=auto;html=1;entryX=0.5;entryY=1;entryDx=0;entryDy=0;strokeWidth=2;fontSize=15;exitX=0.505;exitY=0.971;exitDx=0;exitDy=0;exitPerimeter=0;" parent="SWNsiHUGbcFHn0X8gtFT-1" source="SWNsiHUGbcFHn0X8gtFT-16" target="7ie18YgwQUiWZ0Jtjgfl-4" edge="1">
          <mxGeometry relative="1" as="geometry">
            <Array as="points">
              <mxPoint x="331" y="450" />
              <mxPoint x="160" y="450" />
            </Array>
          </mxGeometry>
        </mxCell>
        <mxCell id="7ie18YgwQUiWZ0Jtjgfl-14" value="No" style="edgeLabel;html=1;align=center;verticalAlign=middle;resizable=0;points=[];fontSize=15;" parent="7ie18YgwQUiWZ0Jtjgfl-13" vertex="1" connectable="0">
          <mxGeometry x="0.2279" y="-2" relative="1" as="geometry">
            <mxPoint x="22" y="-13" as="offset" />
          </mxGeometry>
        </mxCell>
        <mxCell id="SWNsiHUGbcFHn0X8gtFT-16" value="Is Timer 1&lt;br&gt;&amp;nbsp;equal to register A&lt;br&gt;value ?" style="rhombus;whiteSpace=wrap;html=1;fontSize=15;rounded=1;arcSize=14;strokeWidth=2;strokeColor=#006600;" parent="SWNsiHUGbcFHn0X8gtFT-1" vertex="1">
          <mxGeometry x="250" y="325" width="160" height="110" as="geometry" />
        </mxCell>
        <mxCell id="7ie18YgwQUiWZ0Jtjgfl-5" value="" style="edgeStyle=orthogonalEdgeStyle;rounded=0;orthogonalLoop=1;jettySize=auto;html=1;strokeWidth=2;fontSize=15;" parent="SWNsiHUGbcFHn0X8gtFT-1" source="SWNsiHUGbcFHn0X8gtFT-18" target="7ie18YgwQUiWZ0Jtjgfl-4" edge="1">
          <mxGeometry relative="1" as="geometry" />
        </mxCell>
        <mxCell id="SWNsiHUGbcFHn0X8gtFT-18" value="Start Timer 1 counter" style="whiteSpace=wrap;html=1;rounded=1;arcSize=14;strokeWidth=2;fontSize=15;strokeColor=#083CCC;" parent="SWNsiHUGbcFHn0X8gtFT-1" vertex="1">
          <mxGeometry x="100" y="220" width="120" height="60" as="geometry" />
        </mxCell>
        <mxCell id="SWNsiHUGbcFHn0X8gtFT-19" value="" style="edgeStyle=orthogonalEdgeStyle;rounded=0;orthogonalLoop=1;jettySize=auto;html=1;strokeWidth=2;fontSize=15;" parent="SWNsiHUGbcFHn0X8gtFT-1" source="SWNsiHUGbcFHn0X8gtFT-20" target="SWNsiHUGbcFHn0X8gtFT-22" edge="1">
          <mxGeometry relative="1" as="geometry" />
        </mxCell>
        <mxCell id="SWNsiHUGbcFHn0X8gtFT-20" value="Read byte from WAV file" style="whiteSpace=wrap;html=1;rounded=1;arcSize=14;strokeWidth=2;fontSize=15;strokeColor=#083CCC;" parent="SWNsiHUGbcFHn0X8gtFT-1" vertex="1">
          <mxGeometry x="450" y="350" width="120" height="60" as="geometry" />
        </mxCell>
        <mxCell id="SWNsiHUGbcFHn0X8gtFT-21" value="" style="edgeStyle=orthogonalEdgeStyle;rounded=0;orthogonalLoop=1;jettySize=auto;html=1;strokeWidth=2;fontSize=15;entryX=0.5;entryY=0;entryDx=0;entryDy=0;" parent="SWNsiHUGbcFHn0X8gtFT-1" source="SWNsiHUGbcFHn0X8gtFT-22" target="SWNsiHUGbcFHn0X8gtFT-28" edge="1">
          <mxGeometry relative="1" as="geometry">
            <Array as="points" />
          </mxGeometry>
        </mxCell>
        <mxCell id="SWNsiHUGbcFHn0X8gtFT-22" value="Send byte to output PWM pin" style="whiteSpace=wrap;html=1;rounded=1;arcSize=14;strokeWidth=2;fontSize=15;strokeColor=#083CCC;" parent="SWNsiHUGbcFHn0X8gtFT-1" vertex="1">
          <mxGeometry x="610" y="350" width="120" height="60" as="geometry" />
        </mxCell>
        <mxCell id="SWNsiHUGbcFHn0X8gtFT-23" value="" style="edgeStyle=orthogonalEdgeStyle;rounded=0;orthogonalLoop=1;jettySize=auto;html=1;strokeWidth=2;fontSize=15;" parent="SWNsiHUGbcFHn0X8gtFT-1" target="SWNsiHUGbcFHn0X8gtFT-30" edge="1">
          <mxGeometry relative="1" as="geometry">
            <mxPoint x="670" y="520" as="sourcePoint" />
          </mxGeometry>
        </mxCell>
        <mxCell id="SWNsiHUGbcFHn0X8gtFT-24" value="No" style="edgeLabel;html=1;align=center;verticalAlign=middle;resizable=0;points=[];fontSize=15;" parent="SWNsiHUGbcFHn0X8gtFT-23" vertex="1" connectable="0">
          <mxGeometry x="0.7448" relative="1" as="geometry">
            <mxPoint x="20" y="-16" as="offset" />
          </mxGeometry>
        </mxCell>
        <mxCell id="SWNsiHUGbcFHn0X8gtFT-26" style="edgeStyle=orthogonalEdgeStyle;rounded=0;orthogonalLoop=1;jettySize=auto;html=1;entryX=1;entryY=0.5;entryDx=0;entryDy=0;strokeWidth=2;fontSize=15;" parent="SWNsiHUGbcFHn0X8gtFT-1" source="SWNsiHUGbcFHn0X8gtFT-28" target="SWNsiHUGbcFHn0X8gtFT-39" edge="1">
          <mxGeometry relative="1" as="geometry" />
        </mxCell>
        <mxCell id="SWNsiHUGbcFHn0X8gtFT-27" value="Yes" style="edgeLabel;html=1;align=center;verticalAlign=middle;resizable=0;points=[];fontSize=15;" parent="SWNsiHUGbcFHn0X8gtFT-26" vertex="1" connectable="0">
          <mxGeometry x="-0.1857" y="-1" relative="1" as="geometry">
            <mxPoint x="6" y="11" as="offset" />
          </mxGeometry>
        </mxCell>
        <mxCell id="SWNsiHUGbcFHn0X8gtFT-28" value="Is there &lt;br&gt;another byte to read?" style="rhombus;whiteSpace=wrap;html=1;fontSize=15;rounded=1;arcSize=14;strokeWidth=2;strokeColor=#006600;" parent="SWNsiHUGbcFHn0X8gtFT-1" vertex="1">
          <mxGeometry x="610" y="440" width="120" height="100" as="geometry" />
        </mxCell>
        <mxCell id="SWNsiHUGbcFHn0X8gtFT-29" value="" style="edgeStyle=orthogonalEdgeStyle;rounded=0;orthogonalLoop=1;jettySize=auto;html=1;strokeWidth=2;fontSize=15;" parent="SWNsiHUGbcFHn0X8gtFT-1" source="SWNsiHUGbcFHn0X8gtFT-30" target="SWNsiHUGbcFHn0X8gtFT-32" edge="1">
          <mxGeometry relative="1" as="geometry" />
        </mxCell>
        <mxCell id="SWNsiHUGbcFHn0X8gtFT-30" value="Disable Timer1 to Compare to register A" style="whiteSpace=wrap;html=1;rounded=1;arcSize=14;strokeWidth=2;fontSize=15;strokeColor=#083CCC;" parent="SWNsiHUGbcFHn0X8gtFT-1" vertex="1">
          <mxGeometry x="610" y="565" width="120" height="60" as="geometry" />
        </mxCell>
        <mxCell id="SWNsiHUGbcFHn0X8gtFT-31" value="" style="edgeStyle=orthogonalEdgeStyle;rounded=0;orthogonalLoop=1;jettySize=auto;html=1;strokeWidth=2;fontSize=15;" parent="SWNsiHUGbcFHn0X8gtFT-1" source="SWNsiHUGbcFHn0X8gtFT-32" target="SWNsiHUGbcFHn0X8gtFT-34" edge="1">
          <mxGeometry relative="1" as="geometry" />
        </mxCell>
        <mxCell id="SWNsiHUGbcFHn0X8gtFT-32" value="Clear Timer1 and Registers A and B" style="whiteSpace=wrap;html=1;rounded=1;arcSize=14;strokeWidth=2;fontSize=15;strokeColor=#083CCC;" parent="SWNsiHUGbcFHn0X8gtFT-1" vertex="1">
          <mxGeometry x="450" y="565" width="120" height="60" as="geometry" />
        </mxCell>
        <mxCell id="7ie18YgwQUiWZ0Jtjgfl-3" value="" style="edgeStyle=orthogonalEdgeStyle;rounded=0;orthogonalLoop=1;jettySize=auto;html=1;strokeWidth=2;" parent="SWNsiHUGbcFHn0X8gtFT-1" source="SWNsiHUGbcFHn0X8gtFT-34" target="7ie18YgwQUiWZ0Jtjgfl-2" edge="1">
          <mxGeometry relative="1" as="geometry" />
        </mxCell>
        <mxCell id="SWNsiHUGbcFHn0X8gtFT-34" value="Set digital pin to low" style="whiteSpace=wrap;html=1;rounded=1;arcSize=14;strokeWidth=2;fontSize=15;strokeColor=#083CCC;" parent="SWNsiHUGbcFHn0X8gtFT-1" vertex="1">
          <mxGeometry x="300" y="565" width="120" height="60" as="geometry" />
        </mxCell>
        <mxCell id="SWNsiHUGbcFHn0X8gtFT-35" value="" style="edgeStyle=orthogonalEdgeStyle;rounded=0;orthogonalLoop=1;jettySize=auto;html=1;strokeWidth=2;fontSize=15;" parent="SWNsiHUGbcFHn0X8gtFT-1" source="SWNsiHUGbcFHn0X8gtFT-36" target="SWNsiHUGbcFHn0X8gtFT-38" edge="1">
          <mxGeometry relative="1" as="geometry" />
        </mxCell>
        <mxCell id="SWNsiHUGbcFHn0X8gtFT-36" value="Open audio file" style="whiteSpace=wrap;html=1;rounded=1;arcSize=14;strokeWidth=2;fontSize=15;strokeColor=#083CCC;" parent="SWNsiHUGbcFHn0X8gtFT-1" vertex="1">
          <mxGeometry x="270" y="120" width="120" height="60" as="geometry" />
        </mxCell>
        <mxCell id="SWNsiHUGbcFHn0X8gtFT-37" style="edgeStyle=orthogonalEdgeStyle;rounded=0;orthogonalLoop=1;jettySize=auto;html=1;entryX=0;entryY=0.5;entryDx=0;entryDy=0;strokeWidth=2;fontSize=15;" parent="SWNsiHUGbcFHn0X8gtFT-1" source="SWNsiHUGbcFHn0X8gtFT-38" target="SWNsiHUGbcFHn0X8gtFT-5" edge="1">
          <mxGeometry relative="1" as="geometry" />
        </mxCell>
        <mxCell id="SWNsiHUGbcFHn0X8gtFT-38" value="Skip file header info" style="whiteSpace=wrap;html=1;rounded=1;arcSize=14;strokeWidth=2;fontSize=15;strokeColor=#083CCC;" parent="SWNsiHUGbcFHn0X8gtFT-1" vertex="1">
          <mxGeometry x="430" y="120" width="120" height="60" as="geometry" />
        </mxCell>
        <mxCell id="7ie18YgwQUiWZ0Jtjgfl-1" style="edgeStyle=orthogonalEdgeStyle;rounded=0;orthogonalLoop=1;jettySize=auto;html=1;entryX=0;entryY=0.5;entryDx=0;entryDy=0;strokeWidth=2;exitX=0;exitY=0.5;exitDx=0;exitDy=0;" parent="SWNsiHUGbcFHn0X8gtFT-1" source="SWNsiHUGbcFHn0X8gtFT-39" target="SWNsiHUGbcFHn0X8gtFT-18" edge="1">
          <mxGeometry relative="1" as="geometry">
            <Array as="points">
              <mxPoint x="80" y="490" />
              <mxPoint x="80" y="250" />
            </Array>
          </mxGeometry>
        </mxCell>
        <mxCell id="SWNsiHUGbcFHn0X8gtFT-39" value="Reset Timer 1" style="whiteSpace=wrap;html=1;rounded=1;arcSize=14;strokeWidth=2;fontSize=15;strokeColor=#083CCC;" parent="SWNsiHUGbcFHn0X8gtFT-1" vertex="1">
          <mxGeometry x="420" y="460" width="120" height="60" as="geometry" />
        </mxCell>
        <mxCell id="7ie18YgwQUiWZ0Jtjgfl-2" value="&lt;font style=&quot;font-size: 15px;&quot;&gt;Close audio file&lt;/font&gt;" style="strokeWidth=2;html=1;shape=mxgraph.flowchart.terminator;whiteSpace=wrap;strokeColor=#FF9933;" parent="SWNsiHUGbcFHn0X8gtFT-1" vertex="1">
          <mxGeometry x="140" y="565" width="100" height="60" as="geometry" />
        </mxCell>
        <mxCell id="7ie18YgwQUiWZ0Jtjgfl-6" value="" style="edgeStyle=orthogonalEdgeStyle;rounded=0;orthogonalLoop=1;jettySize=auto;html=1;strokeWidth=2;fontSize=15;" parent="SWNsiHUGbcFHn0X8gtFT-1" source="7ie18YgwQUiWZ0Jtjgfl-4" target="SWNsiHUGbcFHn0X8gtFT-16" edge="1">
          <mxGeometry relative="1" as="geometry" />
        </mxCell>
        <mxCell id="7ie18YgwQUiWZ0Jtjgfl-4" value="Count ++" style="whiteSpace=wrap;html=1;rounded=1;arcSize=14;strokeWidth=2;fontSize=15;strokeColor=#083CCC;" parent="SWNsiHUGbcFHn0X8gtFT-1" vertex="1">
          <mxGeometry x="100" y="350" width="120" height="60" as="geometry" />
        </mxCell>
        <mxCell id="7ie18YgwQUiWZ0Jtjgfl-10" value="" style="edgeStyle=orthogonalEdgeStyle;rounded=0;orthogonalLoop=1;jettySize=auto;html=1;strokeWidth=2;fontSize=15;" parent="SWNsiHUGbcFHn0X8gtFT-1" source="7ie18YgwQUiWZ0Jtjgfl-7" target="7ie18YgwQUiWZ0Jtjgfl-8" edge="1">
          <mxGeometry relative="1" as="geometry" />
        </mxCell>
        <mxCell id="7ie18YgwQUiWZ0Jtjgfl-7" value="ICR1=500" style="whiteSpace=wrap;html=1;rounded=1;arcSize=14;strokeWidth=2;fontSize=15;strokeColor=#083CCC;" parent="SWNsiHUGbcFHn0X8gtFT-1" vertex="1">
          <mxGeometry x="605" y="220" width="120" height="60" as="geometry" />
        </mxCell>
        <mxCell id="7ie18YgwQUiWZ0Jtjgfl-9" value="" style="edgeStyle=orthogonalEdgeStyle;rounded=0;orthogonalLoop=1;jettySize=auto;html=1;strokeWidth=2;fontSize=15;" parent="SWNsiHUGbcFHn0X8gtFT-1" source="7ie18YgwQUiWZ0Jtjgfl-8" target="SWNsiHUGbcFHn0X8gtFT-11" edge="1">
          <mxGeometry relative="1" as="geometry" />
        </mxCell>
        <mxCell id="7ie18YgwQUiWZ0Jtjgfl-8" value="Enable global interrupts" style="whiteSpace=wrap;html=1;rounded=1;arcSize=14;strokeWidth=2;fontSize=15;strokeColor=#083CCC;" parent="SWNsiHUGbcFHn0X8gtFT-1" vertex="1">
          <mxGeometry x="430" y="220" width="120" height="60" as="geometry" />
        </mxCell>
      </root>
    </mxGraphModel>
  </diagram>
  <diagram id="v4JBM94JmG5wjrGkXIkH" name="Página-12">
    <mxGraphModel dx="1434" dy="844" grid="1" gridSize="10" guides="1" tooltips="1" connect="1" arrows="1" fold="1" page="1" pageScale="1" pageWidth="827" pageHeight="1169" math="0" shadow="0">
      <root>
        <mxCell id="0" />
        <mxCell id="1" parent="0" />
        <mxCell id="e40hm4cTNEwtHB_PlczS-1" value="Audio bytes" style="rounded=0;whiteSpace=wrap;html=1;strokeWidth=2;fontSize=15;" parent="1" vertex="1">
          <mxGeometry x="60" y="160" width="100" height="60" as="geometry" />
        </mxCell>
        <mxCell id="e40hm4cTNEwtHB_PlczS-2" value="Separator 1" style="rounded=0;whiteSpace=wrap;html=1;strokeWidth=2;fontSize=15;" parent="1" vertex="1">
          <mxGeometry x="160" y="160" width="70" height="60" as="geometry" />
        </mxCell>
        <mxCell id="e40hm4cTNEwtHB_PlczS-4" value="Separator 2" style="rounded=0;whiteSpace=wrap;html=1;strokeWidth=2;fontSize=15;" parent="1" vertex="1">
          <mxGeometry x="330" y="160" width="70" height="60" as="geometry" />
        </mxCell>
        <mxCell id="e40hm4cTNEwtHB_PlczS-6" value="Separator 2" style="rounded=0;whiteSpace=wrap;html=1;strokeWidth=2;fontSize=15;" parent="1" vertex="1">
          <mxGeometry x="500" y="160" width="70" height="60" as="geometry" />
        </mxCell>
        <mxCell id="e40hm4cTNEwtHB_PlczS-8" value="PS" style="rounded=0;whiteSpace=wrap;html=1;strokeWidth=2;fontSize=15;" parent="1" vertex="1">
          <mxGeometry x="230" y="160" width="100" height="60" as="geometry" />
        </mxCell>
        <mxCell id="e40hm4cTNEwtHB_PlczS-9" value="PI" style="rounded=0;whiteSpace=wrap;html=1;strokeWidth=2;fontSize=15;" parent="1" vertex="1">
          <mxGeometry x="400" y="160" width="100" height="60" as="geometry" />
        </mxCell>
        <mxCell id="e40hm4cTNEwtHB_PlczS-10" value="AF" style="rounded=0;whiteSpace=wrap;html=1;strokeWidth=2;fontSize=15;" parent="1" vertex="1">
          <mxGeometry x="570" y="160" width="100" height="60" as="geometry" />
        </mxCell>
        <mxCell id="e40hm4cTNEwtHB_PlczS-12" value="≤ 8" style="rounded=0;whiteSpace=wrap;html=1;strokeWidth=2;fontSize=15;" parent="1" vertex="1">
          <mxGeometry x="230" y="220" width="100" height="20" as="geometry" />
        </mxCell>
        <mxCell id="e40hm4cTNEwtHB_PlczS-13" value="&amp;nbsp;4 hexa" style="rounded=0;whiteSpace=wrap;html=1;strokeWidth=2;fontSize=15;" parent="1" vertex="1">
          <mxGeometry x="400" y="220" width="100" height="20" as="geometry" />
        </mxCell>
        <mxCell id="e40hm4cTNEwtHB_PlczS-15" value="≤ 25" style="rounded=0;whiteSpace=wrap;html=1;strokeWidth=2;fontSize=15;" parent="1" vertex="1">
          <mxGeometry x="570" y="220" width="100" height="20" as="geometry" />
        </mxCell>
      </root>
    </mxGraphModel>
  </diagram>
  <diagram name="CAPCode_structure" id="2ss2sL3cioAnWiK6MCkT">
    <mxGraphModel dx="2876" dy="1206" grid="1" gridSize="10" guides="1" tooltips="1" connect="1" arrows="1" fold="1" page="1" pageScale="1" pageWidth="827" pageHeight="1169" math="0" shadow="0">
      <root>
        <mxCell id="Kul9v0MukH3bOCq9Ot_k-0" />
        <mxCell id="Kul9v0MukH3bOCq9Ot_k-1" parent="Kul9v0MukH3bOCq9Ot_k-0" />
        <mxCell id="Kul9v0MukH3bOCq9Ot_k-2" value="&lt;b&gt;Main&lt;/b&gt;" style="rounded=0;whiteSpace=wrap;html=1;strokeWidth=2;fontSize=15;fillColor=#f5f5f5;fontColor=#333333;strokeColor=#666666;" vertex="1" parent="Kul9v0MukH3bOCq9Ot_k-1">
          <mxGeometry x="354" y="170" width="120" height="30" as="geometry" />
        </mxCell>
        <mxCell id="Kul9v0MukH3bOCq9Ot_k-9" value="" style="group" vertex="1" connectable="0" parent="Kul9v0MukH3bOCq9Ot_k-1">
          <mxGeometry x="620" y="270" width="160" height="130" as="geometry" />
        </mxCell>
        <mxCell id="Kul9v0MukH3bOCq9Ot_k-10" value="sending()&lt;br&gt;result_report()" style="rounded=0;whiteSpace=wrap;html=1;fillColor=#fff2cc;strokeColor=#d6b656;strokeWidth=2;" vertex="1" parent="Kul9v0MukH3bOCq9Ot_k-9">
          <mxGeometry y="61.35" width="160" height="68.65" as="geometry" />
        </mxCell>
        <mxCell id="Kul9v0MukH3bOCq9Ot_k-11" value="&lt;font style=&quot;font-size: 15px;&quot;&gt;(.h .cpp)&lt;/font&gt;" style="rounded=0;whiteSpace=wrap;html=1;fillColor=#f5f5f5;fontColor=#333333;strokeColor=#666666;strokeWidth=2;" vertex="1" parent="Kul9v0MukH3bOCq9Ot_k-9">
          <mxGeometry y="34.69003679671921" width="160" height="25.561079744950984" as="geometry" />
        </mxCell>
        <mxCell id="Kul9v0MukH3bOCq9Ot_k-12" value="&lt;span style=&quot;font-size: 15px;&quot;&gt;Send_Alarm&lt;/span&gt;" style="rounded=0;whiteSpace=wrap;html=1;fillColor=#fff2cc;strokeColor=#d6b656;strokeWidth=2;gradientColor=#ffd966;" vertex="1" parent="Kul9v0MukH3bOCq9Ot_k-9">
          <mxGeometry width="160" height="32.86424538636555" as="geometry" />
        </mxCell>
        <mxCell id="Kul9v0MukH3bOCq9Ot_k-13" style="edgeStyle=orthogonalEdgeStyle;rounded=0;orthogonalLoop=1;jettySize=auto;html=1;entryX=0.5;entryY=1;entryDx=0;entryDy=0;strokeWidth=2;fontSize=15;startArrow=classic;startFill=1;" edge="1" parent="Kul9v0MukH3bOCq9Ot_k-1" source="Kul9v0MukH3bOCq9Ot_k-29" target="Kul9v0MukH3bOCq9Ot_k-2">
          <mxGeometry relative="1" as="geometry">
            <Array as="points">
              <mxPoint x="240" y="240" />
              <mxPoint x="414" y="240" />
            </Array>
          </mxGeometry>
        </mxCell>
        <mxCell id="Kul9v0MukH3bOCq9Ot_k-15" style="edgeStyle=orthogonalEdgeStyle;rounded=0;orthogonalLoop=1;jettySize=auto;html=1;entryX=0.5;entryY=1;entryDx=0;entryDy=0;strokeWidth=2;fontSize=15;startArrow=classic;startFill=1;" edge="1" parent="Kul9v0MukH3bOCq9Ot_k-1" source="Kul9v0MukH3bOCq9Ot_k-12" target="Kul9v0MukH3bOCq9Ot_k-2">
          <mxGeometry relative="1" as="geometry">
            <Array as="points">
              <mxPoint x="690" y="240" />
              <mxPoint x="414" y="240" />
            </Array>
          </mxGeometry>
        </mxCell>
        <mxCell id="Kul9v0MukH3bOCq9Ot_k-16" style="edgeStyle=orthogonalEdgeStyle;rounded=0;orthogonalLoop=1;jettySize=auto;html=1;strokeWidth=2;fontSize=15;startArrow=classic;startFill=1;entryX=0.5;entryY=1;entryDx=0;entryDy=0;" edge="1" parent="Kul9v0MukH3bOCq9Ot_k-1" source="Kul9v0MukH3bOCq9Ot_k-17" target="Kul9v0MukH3bOCq9Ot_k-27">
          <mxGeometry relative="1" as="geometry">
            <mxPoint x="170" y="400" as="targetPoint" />
            <Array as="points">
              <mxPoint x="340" y="430" />
              <mxPoint x="240" y="430" />
            </Array>
          </mxGeometry>
        </mxCell>
        <mxCell id="Kul9v0MukH3bOCq9Ot_k-17" value="&lt;span style=&quot;font-size: 15px;&quot;&gt;Receive_report&lt;/span&gt;" style="rounded=0;whiteSpace=wrap;html=1;fillColor=#d5e8d4;strokeColor=#82b366;strokeWidth=2;gradientColor=#97d077;" vertex="1" parent="Kul9v0MukH3bOCq9Ot_k-1">
          <mxGeometry x="270" y="470" width="160" height="46.666666666666664" as="geometry" />
        </mxCell>
        <mxCell id="Kul9v0MukH3bOCq9Ot_k-18" style="edgeStyle=orthogonalEdgeStyle;rounded=0;orthogonalLoop=1;jettySize=auto;html=1;entryX=0.5;entryY=1;entryDx=0;entryDy=0;strokeWidth=2;fontSize=15;startArrow=classic;startFill=1;" edge="1" parent="Kul9v0MukH3bOCq9Ot_k-1" source="Kul9v0MukH3bOCq9Ot_k-19" target="Kul9v0MukH3bOCq9Ot_k-27">
          <mxGeometry relative="1" as="geometry">
            <Array as="points">
              <mxPoint x="10" y="430" />
              <mxPoint x="240" y="430" />
            </Array>
          </mxGeometry>
        </mxCell>
        <mxCell id="Kul9v0MukH3bOCq9Ot_k-19" value="Receive_data" style="rounded=0;whiteSpace=wrap;html=1;fillColor=#d5e8d4;strokeColor=#82b366;strokeWidth=2;gradientColor=#97d077;fontSize=15;" vertex="1" parent="Kul9v0MukH3bOCq9Ot_k-1">
          <mxGeometry x="-70" y="470" width="160" height="46.666666666666664" as="geometry" />
        </mxCell>
        <mxCell id="Kul9v0MukH3bOCq9Ot_k-20" style="edgeStyle=orthogonalEdgeStyle;rounded=0;orthogonalLoop=1;jettySize=auto;html=1;strokeWidth=2;fontSize=15;startArrow=classic;startFill=1;entryX=0.5;entryY=1;entryDx=0;entryDy=0;" edge="1" parent="Kul9v0MukH3bOCq9Ot_k-1" source="Kul9v0MukH3bOCq9Ot_k-33" target="Kul9v0MukH3bOCq9Ot_k-27">
          <mxGeometry relative="1" as="geometry">
            <mxPoint x="189.99999999999977" y="400" as="targetPoint" />
            <Array as="points">
              <mxPoint x="170" y="430" />
              <mxPoint x="240" y="430" />
            </Array>
            <mxPoint x="170.0526315789475" y="470" as="sourcePoint" />
          </mxGeometry>
        </mxCell>
        <mxCell id="Kul9v0MukH3bOCq9Ot_k-21" style="edgeStyle=orthogonalEdgeStyle;rounded=0;orthogonalLoop=1;jettySize=auto;html=1;strokeWidth=2;fontSize=15;startArrow=classic;startFill=1;entryX=0.5;entryY=1;entryDx=0;entryDy=0;" edge="1" parent="Kul9v0MukH3bOCq9Ot_k-1" source="Kul9v0MukH3bOCq9Ot_k-22" target="Kul9v0MukH3bOCq9Ot_k-10">
          <mxGeometry relative="1" as="geometry">
            <mxPoint x="640" y="400" as="targetPoint" />
            <Array as="points">
              <mxPoint x="700" y="450" />
              <mxPoint x="700" y="450" />
            </Array>
          </mxGeometry>
        </mxCell>
        <mxCell id="Kul9v0MukH3bOCq9Ot_k-22" value="&lt;span style=&quot;font-size: 15px;&quot;&gt;Send_RDS&lt;/span&gt;" style="rounded=0;whiteSpace=wrap;html=1;fillColor=#fff2cc;strokeColor=#d6b656;strokeWidth=2;gradientColor=#ffd966;" vertex="1" parent="Kul9v0MukH3bOCq9Ot_k-1">
          <mxGeometry x="630" y="470" width="160" height="46.666666666666664" as="geometry" />
        </mxCell>
        <mxCell id="Kul9v0MukH3bOCq9Ot_k-23" value="&lt;span style=&quot;font-size: 15px;&quot;&gt;Send_WAV&lt;/span&gt;" style="rounded=0;whiteSpace=wrap;html=1;fillColor=#fff2cc;strokeColor=#d6b656;strokeWidth=2;gradientColor=#ffd966;" vertex="1" parent="Kul9v0MukH3bOCq9Ot_k-1">
          <mxGeometry x="800" y="470.12" width="160" height="46.666666666666664" as="geometry" />
        </mxCell>
        <mxCell id="Kul9v0MukH3bOCq9Ot_k-24" style="edgeStyle=orthogonalEdgeStyle;rounded=0;orthogonalLoop=1;jettySize=auto;html=1;strokeWidth=2;fontSize=15;startArrow=classic;startFill=1;entryX=0.5;entryY=1;entryDx=0;entryDy=0;exitX=0.5;exitY=0;exitDx=0;exitDy=0;" edge="1" parent="Kul9v0MukH3bOCq9Ot_k-1" source="Kul9v0MukH3bOCq9Ot_k-37" target="Kul9v0MukH3bOCq9Ot_k-10">
          <mxGeometry relative="1" as="geometry">
            <mxPoint x="600" y="420" as="targetPoint" />
            <mxPoint x="550" y="470" as="sourcePoint" />
          </mxGeometry>
        </mxCell>
        <mxCell id="Kul9v0MukH3bOCq9Ot_k-25" style="edgeStyle=orthogonalEdgeStyle;rounded=0;orthogonalLoop=1;jettySize=auto;html=1;exitX=0.5;exitY=1;exitDx=0;exitDy=0;entryX=0.65;entryY=-0.024;entryDx=0;entryDy=0;entryPerimeter=0;strokeWidth=2;fontSize=15;startArrow=classic;startFill=1;" edge="1" parent="Kul9v0MukH3bOCq9Ot_k-1" source="Kul9v0MukH3bOCq9Ot_k-10" target="Kul9v0MukH3bOCq9Ot_k-23">
          <mxGeometry relative="1" as="geometry" />
        </mxCell>
        <mxCell id="Kul9v0MukH3bOCq9Ot_k-26" value="" style="group" vertex="1" connectable="0" parent="Kul9v0MukH3bOCq9Ot_k-1">
          <mxGeometry x="160" y="260" width="160" height="130.12" as="geometry" />
        </mxCell>
        <mxCell id="Kul9v0MukH3bOCq9Ot_k-27" value="&lt;font style=&quot;font-size: 12px;&quot;&gt;init()&lt;br&gt;connect_server()&lt;br&gt;return_RDSmsg()&lt;br&gt;report2server()&lt;/font&gt;" style="rounded=0;whiteSpace=wrap;html=1;fillColor=#d5e8d4;strokeColor=#82b366;strokeWidth=2;" vertex="1" parent="Kul9v0MukH3bOCq9Ot_k-26">
          <mxGeometry y="59" width="160" height="71.12" as="geometry" />
        </mxCell>
        <mxCell id="Kul9v0MukH3bOCq9Ot_k-28" value="&lt;font style=&quot;font-size: 15px;&quot;&gt;(.h .cpp)&lt;/font&gt;" style="rounded=0;whiteSpace=wrap;html=1;fillColor=#f5f5f5;fontColor=#333333;strokeColor=#666666;strokeWidth=2;" vertex="1" parent="Kul9v0MukH3bOCq9Ot_k-26">
          <mxGeometry y="32" width="160" height="25.57" as="geometry" />
        </mxCell>
        <mxCell id="Kul9v0MukH3bOCq9Ot_k-29" value="&lt;font style=&quot;font-size: 15px;&quot;&gt;ClientSCK&lt;/font&gt;" style="rounded=0;whiteSpace=wrap;html=1;fillColor=#d5e8d4;strokeColor=#82b366;strokeWidth=2;gradientColor=#97d077;" vertex="1" parent="Kul9v0MukH3bOCq9Ot_k-26">
          <mxGeometry width="160" height="30" as="geometry" />
        </mxCell>
        <mxCell id="Kul9v0MukH3bOCq9Ot_k-30" value="" style="group" vertex="1" connectable="0" parent="Kul9v0MukH3bOCq9Ot_k-1">
          <mxGeometry x="100" y="470.12" width="160" height="130.12" as="geometry" />
        </mxCell>
        <mxCell id="Kul9v0MukH3bOCq9Ot_k-31" value="&lt;font style=&quot;font-size: 12px;&quot;&gt;deleteWAV()&lt;br&gt;createWAV()&lt;br&gt;save()&lt;br&gt;close()&lt;/font&gt;" style="rounded=0;whiteSpace=wrap;html=1;fillColor=#d5e8d4;strokeColor=#82b366;strokeWidth=2;" vertex="1" parent="Kul9v0MukH3bOCq9Ot_k-30">
          <mxGeometry y="59" width="160" height="71.12" as="geometry" />
        </mxCell>
        <mxCell id="Kul9v0MukH3bOCq9Ot_k-32" value="&lt;font style=&quot;font-size: 15px;&quot;&gt;(.h .cpp)&lt;/font&gt;" style="rounded=0;whiteSpace=wrap;html=1;fillColor=#f5f5f5;fontColor=#333333;strokeColor=#666666;strokeWidth=2;" vertex="1" parent="Kul9v0MukH3bOCq9Ot_k-30">
          <mxGeometry y="32" width="160" height="25.57" as="geometry" />
        </mxCell>
        <mxCell id="Kul9v0MukH3bOCq9Ot_k-33" value="&lt;span style=&quot;font-size: 15px;&quot;&gt;Save_WAV&lt;/span&gt;" style="rounded=0;whiteSpace=wrap;html=1;fillColor=#d5e8d4;strokeColor=#82b366;strokeWidth=2;gradientColor=#97d077;" vertex="1" parent="Kul9v0MukH3bOCq9Ot_k-30">
          <mxGeometry width="160" height="30" as="geometry" />
        </mxCell>
        <mxCell id="Kul9v0MukH3bOCq9Ot_k-34" value="" style="group" vertex="1" connectable="0" parent="Kul9v0MukH3bOCq9Ot_k-1">
          <mxGeometry x="460" y="470.12" width="160" height="130" as="geometry" />
        </mxCell>
        <mxCell id="Kul9v0MukH3bOCq9Ot_k-35" value="init()&lt;br&gt;check_RDS()" style="rounded=0;whiteSpace=wrap;html=1;fillColor=#fff2cc;strokeColor=#d6b656;strokeWidth=2;" vertex="1" parent="Kul9v0MukH3bOCq9Ot_k-34">
          <mxGeometry y="61.35" width="160" height="68.65" as="geometry" />
        </mxCell>
        <mxCell id="Kul9v0MukH3bOCq9Ot_k-36" value="&lt;font style=&quot;font-size: 15px;&quot;&gt;(.h .cpp)&lt;/font&gt;" style="rounded=0;whiteSpace=wrap;html=1;fillColor=#f5f5f5;fontColor=#333333;strokeColor=#666666;strokeWidth=2;" vertex="1" parent="Kul9v0MukH3bOCq9Ot_k-34">
          <mxGeometry y="34.69003679671921" width="160" height="25.561079744950984" as="geometry" />
        </mxCell>
        <mxCell id="Kul9v0MukH3bOCq9Ot_k-37" value="&lt;span style=&quot;font-size: 15px;&quot;&gt;Report_RDS&lt;/span&gt;" style="rounded=0;whiteSpace=wrap;html=1;fillColor=#fff2cc;strokeColor=#d6b656;strokeWidth=2;gradientColor=#ffd966;" vertex="1" parent="Kul9v0MukH3bOCq9Ot_k-34">
          <mxGeometry width="160" height="32.86424538636555" as="geometry" />
        </mxCell>
      </root>
    </mxGraphModel>
  </diagram>
  <diagram name="Cópia do Code_structure" id="0RSccsoS1cHRkKw9o81k">
    <mxGraphModel dx="2261" dy="844" grid="1" gridSize="10" guides="1" tooltips="1" connect="1" arrows="1" fold="1" page="1" pageScale="1" pageWidth="827" pageHeight="1169" math="0" shadow="0">
      <root>
        <mxCell id="6o5Ngx9J89MGCHh1OBZD-0" />
        <mxCell id="6o5Ngx9J89MGCHh1OBZD-1" parent="6o5Ngx9J89MGCHh1OBZD-0" />
        <mxCell id="6o5Ngx9J89MGCHh1OBZD-2" value="&lt;b&gt;Main&lt;/b&gt;" style="rounded=0;whiteSpace=wrap;html=1;strokeWidth=2;fontSize=15;fillColor=#f5f5f5;fontColor=#333333;strokeColor=#666666;" vertex="1" parent="6o5Ngx9J89MGCHh1OBZD-1">
          <mxGeometry x="354" y="170" width="120" height="30" as="geometry" />
        </mxCell>
        <mxCell id="6o5Ngx9J89MGCHh1OBZD-3" value="" style="group" vertex="1" connectable="0" parent="6o5Ngx9J89MGCHh1OBZD-1">
          <mxGeometry x="334" y="270" width="160" height="130" as="geometry" />
        </mxCell>
        <mxCell id="6o5Ngx9J89MGCHh1OBZD-4" value="" style="group" vertex="1" connectable="0" parent="6o5Ngx9J89MGCHh1OBZD-3">
          <mxGeometry width="160" height="130" as="geometry" />
        </mxCell>
        <mxCell id="6o5Ngx9J89MGCHh1OBZD-5" value="" style="group;fontSize=15;strokeWidth=2;" vertex="1" connectable="0" parent="6o5Ngx9J89MGCHh1OBZD-4">
          <mxGeometry width="160" height="70" as="geometry" />
        </mxCell>
        <mxCell id="6o5Ngx9J89MGCHh1OBZD-6" value="&lt;span style=&quot;font-size: 15px;&quot;&gt;Split_RDS&lt;/span&gt;" style="rounded=0;whiteSpace=wrap;html=1;fillColor=#f5f5f5;strokeColor=#666666;strokeWidth=2;gradientColor=#b3b3b3;" vertex="1" parent="6o5Ngx9J89MGCHh1OBZD-5">
          <mxGeometry width="160" height="30" as="geometry" />
        </mxCell>
        <mxCell id="6o5Ngx9J89MGCHh1OBZD-7" value="&lt;font style=&quot;font-size: 15px;&quot;&gt;(.h .cpp)&lt;/font&gt;" style="rounded=0;whiteSpace=wrap;html=1;fillColor=#f5f5f5;fontColor=#333333;strokeColor=#666666;strokeWidth=2;" vertex="1" parent="6o5Ngx9J89MGCHh1OBZD-5">
          <mxGeometry y="29.996666666666663" width="160" height="23.333333333333332" as="geometry" />
        </mxCell>
        <mxCell id="6o5Ngx9J89MGCHh1OBZD-8" value="splitRDS_msg()&lt;br&gt;return_PS()&lt;br&gt;return_PI()&lt;br&gt;return_AF()" style="rounded=0;whiteSpace=wrap;html=1;fillColor=#eeeeee;strokeColor=#36393d;strokeWidth=2;" vertex="1" parent="6o5Ngx9J89MGCHh1OBZD-4">
          <mxGeometry y="55" width="160" height="75" as="geometry" />
        </mxCell>
        <mxCell id="6o5Ngx9J89MGCHh1OBZD-9" value="" style="group" vertex="1" connectable="0" parent="6o5Ngx9J89MGCHh1OBZD-1">
          <mxGeometry x="620" y="270" width="160" height="130" as="geometry" />
        </mxCell>
        <mxCell id="6o5Ngx9J89MGCHh1OBZD-10" value="sending()&lt;br&gt;result_report()" style="rounded=0;whiteSpace=wrap;html=1;fillColor=#fff2cc;strokeColor=#d6b656;strokeWidth=2;" vertex="1" parent="6o5Ngx9J89MGCHh1OBZD-9">
          <mxGeometry y="61.35" width="160" height="68.65" as="geometry" />
        </mxCell>
        <mxCell id="6o5Ngx9J89MGCHh1OBZD-11" value="&lt;font style=&quot;font-size: 15px;&quot;&gt;(.h .cpp)&lt;/font&gt;" style="rounded=0;whiteSpace=wrap;html=1;fillColor=#f5f5f5;fontColor=#333333;strokeColor=#666666;strokeWidth=2;" vertex="1" parent="6o5Ngx9J89MGCHh1OBZD-9">
          <mxGeometry y="34.69003679671921" width="160" height="25.561079744950984" as="geometry" />
        </mxCell>
        <mxCell id="6o5Ngx9J89MGCHh1OBZD-12" value="&lt;span style=&quot;font-size: 15px;&quot;&gt;Send_Alarm&lt;/span&gt;" style="rounded=0;whiteSpace=wrap;html=1;fillColor=#fff2cc;strokeColor=#d6b656;strokeWidth=2;gradientColor=#ffd966;" vertex="1" parent="6o5Ngx9J89MGCHh1OBZD-9">
          <mxGeometry width="160" height="32.86424538636555" as="geometry" />
        </mxCell>
        <mxCell id="6o5Ngx9J89MGCHh1OBZD-13" style="edgeStyle=orthogonalEdgeStyle;rounded=0;orthogonalLoop=1;jettySize=auto;html=1;entryX=0.5;entryY=1;entryDx=0;entryDy=0;strokeWidth=2;fontSize=15;startArrow=classic;startFill=1;" edge="1" parent="6o5Ngx9J89MGCHh1OBZD-1" source="6o5Ngx9J89MGCHh1OBZD-29" target="6o5Ngx9J89MGCHh1OBZD-2">
          <mxGeometry relative="1" as="geometry">
            <Array as="points">
              <mxPoint x="130" y="240" />
              <mxPoint x="414" y="240" />
            </Array>
          </mxGeometry>
        </mxCell>
        <mxCell id="6o5Ngx9J89MGCHh1OBZD-14" style="edgeStyle=orthogonalEdgeStyle;rounded=0;orthogonalLoop=1;jettySize=auto;html=1;strokeWidth=2;fontSize=15;startArrow=classic;startFill=1;" edge="1" parent="6o5Ngx9J89MGCHh1OBZD-1" source="6o5Ngx9J89MGCHh1OBZD-6">
          <mxGeometry relative="1" as="geometry">
            <mxPoint x="413.5" y="199.99999999999977" as="targetPoint" />
          </mxGeometry>
        </mxCell>
        <mxCell id="6o5Ngx9J89MGCHh1OBZD-15" style="edgeStyle=orthogonalEdgeStyle;rounded=0;orthogonalLoop=1;jettySize=auto;html=1;entryX=0.5;entryY=1;entryDx=0;entryDy=0;strokeWidth=2;fontSize=15;startArrow=classic;startFill=1;" edge="1" parent="6o5Ngx9J89MGCHh1OBZD-1" source="6o5Ngx9J89MGCHh1OBZD-12" target="6o5Ngx9J89MGCHh1OBZD-2">
          <mxGeometry relative="1" as="geometry">
            <Array as="points">
              <mxPoint x="690" y="240" />
              <mxPoint x="414" y="240" />
            </Array>
          </mxGeometry>
        </mxCell>
        <mxCell id="6o5Ngx9J89MGCHh1OBZD-16" style="edgeStyle=orthogonalEdgeStyle;rounded=0;orthogonalLoop=1;jettySize=auto;html=1;strokeWidth=2;fontSize=15;startArrow=classic;startFill=1;entryX=0.5;entryY=1;entryDx=0;entryDy=0;" edge="1" parent="6o5Ngx9J89MGCHh1OBZD-1" source="6o5Ngx9J89MGCHh1OBZD-17" target="6o5Ngx9J89MGCHh1OBZD-27">
          <mxGeometry relative="1" as="geometry">
            <mxPoint x="189.99999999999977" y="400" as="targetPoint" />
            <Array as="points">
              <mxPoint x="340" y="430" />
              <mxPoint x="120" y="430" />
            </Array>
          </mxGeometry>
        </mxCell>
        <mxCell id="6o5Ngx9J89MGCHh1OBZD-17" value="&lt;span style=&quot;font-size: 15px;&quot;&gt;Receive_report&lt;/span&gt;" style="rounded=0;whiteSpace=wrap;html=1;fillColor=#d5e8d4;strokeColor=#82b366;strokeWidth=2;gradientColor=#97d077;" vertex="1" parent="6o5Ngx9J89MGCHh1OBZD-1">
          <mxGeometry x="260" y="470" width="160" height="46.666666666666664" as="geometry" />
        </mxCell>
        <mxCell id="6o5Ngx9J89MGCHh1OBZD-18" style="edgeStyle=orthogonalEdgeStyle;rounded=0;orthogonalLoop=1;jettySize=auto;html=1;entryX=0.5;entryY=1;entryDx=0;entryDy=0;strokeWidth=2;fontSize=15;startArrow=classic;startFill=1;" edge="1" parent="6o5Ngx9J89MGCHh1OBZD-1" source="6o5Ngx9J89MGCHh1OBZD-19" target="6o5Ngx9J89MGCHh1OBZD-27">
          <mxGeometry relative="1" as="geometry">
            <Array as="points">
              <mxPoint y="430" />
              <mxPoint x="120" y="430" />
            </Array>
          </mxGeometry>
        </mxCell>
        <mxCell id="6o5Ngx9J89MGCHh1OBZD-19" value="Receive_data" style="rounded=0;whiteSpace=wrap;html=1;fillColor=#d5e8d4;strokeColor=#82b366;strokeWidth=2;gradientColor=#97d077;fontSize=15;" vertex="1" parent="6o5Ngx9J89MGCHh1OBZD-1">
          <mxGeometry x="-80" y="470" width="160" height="46.666666666666664" as="geometry" />
        </mxCell>
        <mxCell id="6o5Ngx9J89MGCHh1OBZD-20" style="edgeStyle=orthogonalEdgeStyle;rounded=0;orthogonalLoop=1;jettySize=auto;html=1;strokeWidth=2;fontSize=15;startArrow=classic;startFill=1;entryX=0.5;entryY=1;entryDx=0;entryDy=0;" edge="1" parent="6o5Ngx9J89MGCHh1OBZD-1" source="6o5Ngx9J89MGCHh1OBZD-33" target="6o5Ngx9J89MGCHh1OBZD-27">
          <mxGeometry relative="1" as="geometry">
            <mxPoint x="189.99999999999977" y="400" as="targetPoint" />
            <Array as="points">
              <mxPoint x="170" y="430" />
              <mxPoint x="120" y="430" />
            </Array>
            <mxPoint x="170.0526315789475" y="470" as="sourcePoint" />
          </mxGeometry>
        </mxCell>
        <mxCell id="6o5Ngx9J89MGCHh1OBZD-21" style="edgeStyle=orthogonalEdgeStyle;rounded=0;orthogonalLoop=1;jettySize=auto;html=1;strokeWidth=2;fontSize=15;startArrow=classic;startFill=1;entryX=0.5;entryY=1;entryDx=0;entryDy=0;" edge="1" parent="6o5Ngx9J89MGCHh1OBZD-1" source="6o5Ngx9J89MGCHh1OBZD-22" target="6o5Ngx9J89MGCHh1OBZD-10">
          <mxGeometry relative="1" as="geometry">
            <mxPoint x="640" y="400" as="targetPoint" />
            <Array as="points">
              <mxPoint x="700" y="450" />
              <mxPoint x="700" y="450" />
            </Array>
          </mxGeometry>
        </mxCell>
        <mxCell id="6o5Ngx9J89MGCHh1OBZD-22" value="&lt;span style=&quot;font-size: 15px;&quot;&gt;Send_RDS&lt;/span&gt;" style="rounded=0;whiteSpace=wrap;html=1;fillColor=#fff2cc;strokeColor=#d6b656;strokeWidth=2;gradientColor=#ffd966;" vertex="1" parent="6o5Ngx9J89MGCHh1OBZD-1">
          <mxGeometry x="630" y="470" width="160" height="46.666666666666664" as="geometry" />
        </mxCell>
        <mxCell id="6o5Ngx9J89MGCHh1OBZD-23" value="&lt;span style=&quot;font-size: 15px;&quot;&gt;Send_WAV&lt;/span&gt;" style="rounded=0;whiteSpace=wrap;html=1;fillColor=#fff2cc;strokeColor=#d6b656;strokeWidth=2;gradientColor=#ffd966;" vertex="1" parent="6o5Ngx9J89MGCHh1OBZD-1">
          <mxGeometry x="800" y="470.12" width="160" height="46.666666666666664" as="geometry" />
        </mxCell>
        <mxCell id="6o5Ngx9J89MGCHh1OBZD-24" style="edgeStyle=orthogonalEdgeStyle;rounded=0;orthogonalLoop=1;jettySize=auto;html=1;strokeWidth=2;fontSize=15;startArrow=classic;startFill=1;entryX=0.5;entryY=1;entryDx=0;entryDy=0;exitX=0.5;exitY=0;exitDx=0;exitDy=0;" edge="1" parent="6o5Ngx9J89MGCHh1OBZD-1" source="6o5Ngx9J89MGCHh1OBZD-37" target="6o5Ngx9J89MGCHh1OBZD-10">
          <mxGeometry relative="1" as="geometry">
            <mxPoint x="600" y="420" as="targetPoint" />
            <mxPoint x="550" y="470" as="sourcePoint" />
          </mxGeometry>
        </mxCell>
        <mxCell id="6o5Ngx9J89MGCHh1OBZD-25" style="edgeStyle=orthogonalEdgeStyle;rounded=0;orthogonalLoop=1;jettySize=auto;html=1;exitX=0.5;exitY=1;exitDx=0;exitDy=0;entryX=0.65;entryY=-0.024;entryDx=0;entryDy=0;entryPerimeter=0;strokeWidth=2;fontSize=15;startArrow=classic;startFill=1;" edge="1" parent="6o5Ngx9J89MGCHh1OBZD-1" source="6o5Ngx9J89MGCHh1OBZD-10" target="6o5Ngx9J89MGCHh1OBZD-23">
          <mxGeometry relative="1" as="geometry" />
        </mxCell>
        <mxCell id="6o5Ngx9J89MGCHh1OBZD-26" value="" style="group" vertex="1" connectable="0" parent="6o5Ngx9J89MGCHh1OBZD-1">
          <mxGeometry x="40" y="260" width="160" height="130.12" as="geometry" />
        </mxCell>
        <mxCell id="6o5Ngx9J89MGCHh1OBZD-27" value="&lt;font style=&quot;font-size: 12px;&quot;&gt;init()&lt;br&gt;connect_server()&lt;br&gt;return_RDSmsg()&lt;br&gt;report2server()&lt;/font&gt;" style="rounded=0;whiteSpace=wrap;html=1;fillColor=#d5e8d4;strokeColor=#82b366;strokeWidth=2;" vertex="1" parent="6o5Ngx9J89MGCHh1OBZD-26">
          <mxGeometry y="59" width="160" height="71.12" as="geometry" />
        </mxCell>
        <mxCell id="6o5Ngx9J89MGCHh1OBZD-28" value="&lt;font style=&quot;font-size: 15px;&quot;&gt;(.h .cpp)&lt;/font&gt;" style="rounded=0;whiteSpace=wrap;html=1;fillColor=#f5f5f5;fontColor=#333333;strokeColor=#666666;strokeWidth=2;" vertex="1" parent="6o5Ngx9J89MGCHh1OBZD-26">
          <mxGeometry y="32" width="160" height="25.57" as="geometry" />
        </mxCell>
        <mxCell id="6o5Ngx9J89MGCHh1OBZD-29" value="&lt;font style=&quot;font-size: 15px;&quot;&gt;ClientSCK&lt;/font&gt;" style="rounded=0;whiteSpace=wrap;html=1;fillColor=#d5e8d4;strokeColor=#82b366;strokeWidth=2;gradientColor=#97d077;" vertex="1" parent="6o5Ngx9J89MGCHh1OBZD-26">
          <mxGeometry width="160" height="30" as="geometry" />
        </mxCell>
        <mxCell id="6o5Ngx9J89MGCHh1OBZD-30" value="" style="group" vertex="1" connectable="0" parent="6o5Ngx9J89MGCHh1OBZD-1">
          <mxGeometry x="90" y="470" width="160" height="130.12" as="geometry" />
        </mxCell>
        <mxCell id="6o5Ngx9J89MGCHh1OBZD-31" value="&lt;font style=&quot;font-size: 12px;&quot;&gt;deleteWAV()&lt;br&gt;createWAV()&lt;br&gt;save()&lt;br&gt;close()&lt;/font&gt;" style="rounded=0;whiteSpace=wrap;html=1;fillColor=#d5e8d4;strokeColor=#82b366;strokeWidth=2;" vertex="1" parent="6o5Ngx9J89MGCHh1OBZD-30">
          <mxGeometry y="59" width="160" height="71.12" as="geometry" />
        </mxCell>
        <mxCell id="6o5Ngx9J89MGCHh1OBZD-32" value="&lt;font style=&quot;font-size: 15px;&quot;&gt;(.h .cpp)&lt;/font&gt;" style="rounded=0;whiteSpace=wrap;html=1;fillColor=#f5f5f5;fontColor=#333333;strokeColor=#666666;strokeWidth=2;" vertex="1" parent="6o5Ngx9J89MGCHh1OBZD-30">
          <mxGeometry y="32" width="160" height="25.57" as="geometry" />
        </mxCell>
        <mxCell id="6o5Ngx9J89MGCHh1OBZD-33" value="&lt;span style=&quot;font-size: 15px;&quot;&gt;Save_WAV&lt;/span&gt;" style="rounded=0;whiteSpace=wrap;html=1;fillColor=#d5e8d4;strokeColor=#82b366;strokeWidth=2;gradientColor=#97d077;" vertex="1" parent="6o5Ngx9J89MGCHh1OBZD-30">
          <mxGeometry width="160" height="30" as="geometry" />
        </mxCell>
        <mxCell id="6o5Ngx9J89MGCHh1OBZD-34" value="" style="group" vertex="1" connectable="0" parent="6o5Ngx9J89MGCHh1OBZD-1">
          <mxGeometry x="460" y="470.12" width="160" height="130" as="geometry" />
        </mxCell>
        <mxCell id="6o5Ngx9J89MGCHh1OBZD-35" value="init()&lt;br&gt;check_RDS()" style="rounded=0;whiteSpace=wrap;html=1;fillColor=#fff2cc;strokeColor=#d6b656;strokeWidth=2;" vertex="1" parent="6o5Ngx9J89MGCHh1OBZD-34">
          <mxGeometry y="61.35" width="160" height="68.65" as="geometry" />
        </mxCell>
        <mxCell id="6o5Ngx9J89MGCHh1OBZD-36" value="&lt;font style=&quot;font-size: 15px;&quot;&gt;(.h .cpp)&lt;/font&gt;" style="rounded=0;whiteSpace=wrap;html=1;fillColor=#f5f5f5;fontColor=#333333;strokeColor=#666666;strokeWidth=2;" vertex="1" parent="6o5Ngx9J89MGCHh1OBZD-34">
          <mxGeometry y="34.69003679671921" width="160" height="25.561079744950984" as="geometry" />
        </mxCell>
        <mxCell id="6o5Ngx9J89MGCHh1OBZD-37" value="&lt;span style=&quot;font-size: 15px;&quot;&gt;Report_RDS&lt;/span&gt;" style="rounded=0;whiteSpace=wrap;html=1;fillColor=#fff2cc;strokeColor=#d6b656;strokeWidth=2;gradientColor=#ffd966;" vertex="1" parent="6o5Ngx9J89MGCHh1OBZD-34">
          <mxGeometry width="160" height="32.86424538636555" as="geometry" />
        </mxCell>
      </root>
    </mxGraphModel>
  </diagram>
  <diagram id="-KI5mwTUfwAqy4V0KCcA" name="CAP Message Arduino Processing">
    <mxGraphModel dx="880" dy="452" grid="1" gridSize="10" guides="1" tooltips="1" connect="1" arrows="1" fold="1" page="1" pageScale="1" pageWidth="827" pageHeight="1169" math="0" shadow="0">
      <root>
        <mxCell id="0" />
        <mxCell id="1" parent="0" />
        <mxCell id="ujvatS2rQPBf0pxMLRIM-1" value="" style="edgeStyle=orthogonalEdgeStyle;rounded=0;orthogonalLoop=1;jettySize=auto;html=1;fontSize=15;strokeWidth=2;" edge="1" parent="1" source="ujvatS2rQPBf0pxMLRIM-2" target="ujvatS2rQPBf0pxMLRIM-4">
          <mxGeometry relative="1" as="geometry" />
        </mxCell>
        <mxCell id="ujvatS2rQPBf0pxMLRIM-2" value="Init" style="whiteSpace=wrap;html=1;rounded=1;arcSize=14;strokeWidth=2;fontSize=15;strokeColor=#083CCC;" vertex="1" parent="1">
          <mxGeometry x="70" y="30" width="120" height="60" as="geometry" />
        </mxCell>
        <mxCell id="ujvatS2rQPBf0pxMLRIM-3" value="" style="edgeStyle=orthogonalEdgeStyle;rounded=0;orthogonalLoop=1;jettySize=auto;html=1;strokeWidth=2;fontSize=15;" edge="1" parent="1" source="ujvatS2rQPBf0pxMLRIM-4" target="ujvatS2rQPBf0pxMLRIM-9">
          <mxGeometry relative="1" as="geometry" />
        </mxCell>
        <mxCell id="ujvatS2rQPBf0pxMLRIM-4" value="Try to connect to the server using IP and Port" style="whiteSpace=wrap;html=1;fontSize=15;rounded=1;arcSize=14;strokeWidth=2;strokeColor=#083CCC;" vertex="1" parent="1">
          <mxGeometry x="240" y="30" width="120" height="60" as="geometry" />
        </mxCell>
        <mxCell id="ujvatS2rQPBf0pxMLRIM-5" value="" style="edgeStyle=orthogonalEdgeStyle;rounded=0;orthogonalLoop=1;jettySize=auto;html=1;strokeWidth=2;fontSize=15;" edge="1" parent="1" source="ujvatS2rQPBf0pxMLRIM-9">
          <mxGeometry relative="1" as="geometry">
            <mxPoint x="404.25" y="175" as="targetPoint" />
          </mxGeometry>
        </mxCell>
        <mxCell id="ujvatS2rQPBf0pxMLRIM-6" value="Yes" style="edgeLabel;html=1;align=center;verticalAlign=middle;resizable=0;points=[];fontSize=15;" vertex="1" connectable="0" parent="ujvatS2rQPBf0pxMLRIM-5">
          <mxGeometry x="-0.1012" relative="1" as="geometry">
            <mxPoint y="15" as="offset" />
          </mxGeometry>
        </mxCell>
        <mxCell id="ujvatS2rQPBf0pxMLRIM-7" style="edgeStyle=orthogonalEdgeStyle;rounded=0;orthogonalLoop=1;jettySize=auto;html=1;entryX=0;entryY=0.5;entryDx=0;entryDy=0;strokeWidth=2;fontSize=15;exitX=0;exitY=0.5;exitDx=0;exitDy=0;" edge="1" parent="1" source="ujvatS2rQPBf0pxMLRIM-9" target="ujvatS2rQPBf0pxMLRIM-4">
          <mxGeometry relative="1" as="geometry">
            <Array as="points">
              <mxPoint x="220" y="175" />
              <mxPoint x="220" y="60" />
            </Array>
          </mxGeometry>
        </mxCell>
        <mxCell id="ujvatS2rQPBf0pxMLRIM-8" value="No" style="edgeLabel;html=1;align=center;verticalAlign=middle;resizable=0;points=[];fontSize=15;" vertex="1" connectable="0" parent="ujvatS2rQPBf0pxMLRIM-7">
          <mxGeometry x="-0.5708" y="1" relative="1" as="geometry">
            <mxPoint x="-19" y="-36" as="offset" />
          </mxGeometry>
        </mxCell>
        <mxCell id="ujvatS2rQPBf0pxMLRIM-9" value="Connected ?" style="rhombus;whiteSpace=wrap;html=1;fontSize=15;rounded=1;arcSize=14;strokeWidth=2;strokeColor=#006600;" vertex="1" parent="1">
          <mxGeometry x="245" y="130" width="110" height="90" as="geometry" />
        </mxCell>
      </root>
    </mxGraphModel>
  </diagram>
</mxfile>
